<?xml version="1.0" encoding="UTF-8"?> <svg xmlns="http://www.w3.org/2000/svg" id="Layer_1" version="1.1" viewBox="0 0 3840 2160"><defs><style> .st1,.st3,.st5,.st8,.st9{fill:none;stroke-miterlimit:10}.st5,.st8,.st9{stroke-width:10px}.st8{stroke:red}.st1,.st3{stroke-width:2px}.st1,.st5,.st9{stroke:#e12}.st1,.st3{stroke-dasharray:6 3}.st12{fill:gray}.st14{fill:#fff}.st3{stroke:#fccfd2}.st5{stroke-dasharray:5.8 2.9} </style></defs><circle cx="1920" cy="1080" r="455" fill="#f8f8f8"></circle><circle cx="1920" cy="1080" r="455" fill="none" stroke="#e12" stroke-dasharray="3 9" stroke-miterlimit="10" stroke-width="3"></circle><ellipse cx="1920" cy="1745.4" class="st1" rx="209" ry="208.9"></ellipse><ellipse cx="1920" cy="417.5" class="st1" rx="209" ry="208.9"></ellipse><circle cx="2582.2" cy="1080" r="209" fill="none" stroke="#e12" stroke-dasharray="6 3" stroke-miterlimit="10" stroke-width="2"></circle><ellipse cx="1258.8" cy="1080" class="st1" rx="209" ry="208.9"></ellipse><circle cx="1920" cy="1080" r="210" fill="#e12"></circle><circle cx="2375" cy="1080" r="120"></circle><circle cx="1466" cy="1080" r="120"></circle><circle cx="1920" cy="627" r="120"></circle><circle cx="1920" cy="1537" r="120"></circle><path d="M2851.2 1094.8c-3.2 0-5.9-.6-8.2-1.7-2.3-1.1-4.1-2.6-5.5-4.4-1.4-1.8-2.4-3.8-3.1-5.9-.7-2.1-1-4.1-1-6.1v-1.1c0-2.1.3-4.3 1-6.4.7-2.1 1.7-4 3.1-5.8 1.4-1.7 3.2-3.1 5.4-4.2s4.9-1.6 7.9-1.6 5.9.6 8.2 1.7c2.3 1.1 4.1 2.7 5.5 4.7 1.4 2 2.2 4.4 2.4 7.1h-5.8c-.3-1.8-.9-3.3-1.8-4.5-.9-1.2-2.1-2.1-3.6-2.7-1.5-.6-3.1-.9-4.9-.9s-3.6.3-5 1c-1.5.7-2.7 1.6-3.6 2.8-1 1.2-1.7 2.6-2.2 4.2s-.7 3.3-.7 5.2.2 3.5.7 5.1 1.2 3 2.2 4.2c1 1.2 2.2 2.2 3.7 2.8s3.2 1 5.2 1c2.8 0 5.2-.7 7.1-2.1 1.9-1.4 3.1-3.4 3.5-6h5.9c-.3 2.5-1.2 4.7-2.5 6.7s-3.2 3.6-5.5 4.8c-2.3 1.2-5.2 1.8-8.4 1.8Zm34.3 0c-2.3 0-4.3-.4-6-1.1-1.7-.8-3.2-1.8-4.4-3-1.2-1.2-2.1-2.7-2.7-4.2-.6-1.6-.9-3.2-.9-4.9v-1c0-1.7.3-3.3.9-4.9.6-1.6 1.5-3 2.7-4.3 1.2-1.3 2.7-2.3 4.4-3 1.7-.7 3.7-1.1 5.9-1.1s4.2.4 5.9 1.1c1.7.7 3.2 1.7 4.4 3 1.2 1.3 2.1 2.7 2.8 4.3.6 1.6.9 3.2.9 4.9v1c0 1.7-.3 3.3-.9 4.9-.6 1.6-1.5 3-2.7 4.2s-2.6 2.2-4.4 3c-1.7.8-3.7 1.1-6 1.1Zm0-4.9c1.8 0 3.3-.4 4.5-1.2 1.2-.8 2.2-1.8 2.9-3.2.7-1.3 1-2.8 1-4.5s-.3-3.2-1-4.6c-.7-1.3-1.6-2.4-2.9-3.2-1.2-.8-2.7-1.2-4.5-1.2s-3.2.4-4.5 1.2c-1.2.8-2.2 1.8-2.9 3.2-.7 1.3-1 2.9-1 4.6s.3 3.2 1 4.5c.7 1.3 1.6 2.4 2.9 3.2 1.2.8 2.8 1.2 4.5 1.2Zm29.3 4.8c-3 0-5.4-1-7-3s-2.4-4.9-2.4-8.7v-15h5.6v15.7c0 1.8.5 3.2 1.5 4.2s2.3 1.6 4 1.6 3.1-.6 4.2-1.7 1.7-2.6 1.7-4.5v-15.4h5.6v25.9h-4.5v-11h.6c0 2.6-.3 4.8-1 6.5-.7 1.7-1.7 3.1-3 4s-3 1.3-5 1.3h-.2Zm21.6-.8V1068h4.5v11.1h-.5c0-2.6.3-4.7 1-6.5.7-1.8 1.7-3.1 3.1-4 1.4-.9 3.2-1.4 5.2-1.4h.2c3.2 0 5.6 1 7.2 3 1.6 2 2.4 5 2.4 8.8v14.8h-5.6v-15.6c0-1.8-.5-3.2-1.5-4.3-1-1.1-2.4-1.7-4.2-1.7s-3.3.6-4.4 1.7c-1.1 1.1-1.7 2.6-1.7 4.5v15.3h-5.6Zm27.3-21.7v-4.2h18v4.2h-18Zm14.2 22c-2.1 0-4-.3-5.4-.9-1.5-.6-2.6-1.6-3.3-3s-1.1-3.3-1.1-5.7v-24.1h5.3v24.6c0 1.3.4 2.4 1.1 3.1.7.7 1.7 1.1 3 1.1h4.3v4.9h-3.9Zm10-.3V1068h4.5v10.8h-.2c0-3.7.8-6.5 2.4-8.3 1.6-1.8 4-2.8 7.2-2.8h.9v4.9h-1.7c-2.4 0-4.3.6-5.6 1.9-1.3 1.3-1.9 3.1-1.9 5.5v13.7h-5.6Zm26-.5-8.8-25.3h5.7l8.4 25.3h-5.3Zm-6.5 10.7v-4.9h4.3c1 0 1.8-.1 2.5-.4.7-.2 1.3-.7 1.7-1.2.4-.6.8-1.4 1.1-2.4l7.5-27.1h5.4l-8.2 28.4c-.5 1.8-1.2 3.2-2.1 4.4-.9 1.1-2.1 1.9-3.5 2.4s-3.1.8-5 .8h-3.8Zm7.9-10.7v-4.6h5.6v4.6h-5.6Zm31.2.7v-35.5h5.7v35.5h-5.7Zm4.7-16.5v-3.6h8c1.8 0 3.2-.5 4-1.5.8-1 1.3-2.2 1.3-3.8s-.4-2.8-1.3-3.8c-.8-1-2.2-1.5-4-1.5h-8v-4.8h7.2c3.9 0 6.8.8 8.8 2.5 2 1.6 3 4 3 7.1v.7c0 2.2-.5 3.9-1.5 5.2-1 1.3-2.4 2.2-4.2 2.7-1.8.5-3.8.8-6.1.8h-7.2Zm0 16.5v-4.8h9.3c1.7 0 3.1-.5 4-1.4.9-1 1.4-2.3 1.4-3.9s-.5-3-1.4-4c-.9-.9-2.3-1.4-4-1.4h-9.3v-3.6h8.7c2.3 0 4.3.3 6.1.8 1.8.6 3.2 1.5 4.2 2.8 1 1.3 1.5 3 1.5 5.2v.7c0 2-.4 3.8-1.3 5.3s-2.2 2.6-3.9 3.3c-1.7.8-3.9 1.1-6.6 1.1h-8.7Zm-2271.6.7c-3.2 0-5.9-.6-8.2-1.7-2.3-1.1-4.1-2.6-5.5-4.4-1.4-1.8-2.4-3.8-3.1-5.9-.7-2.1-1-4.1-1-6.1v-1.1c0-2.1.3-4.3 1-6.4.7-2.1 1.7-4 3.1-5.8 1.4-1.7 3.2-3.1 5.4-4.2s4.9-1.6 7.9-1.6 5.9.6 8.2 1.7c2.3 1.1 4.1 2.7 5.5 4.7 1.4 2 2.2 4.4 2.4 7.1h-5.8c-.3-1.8-.9-3.3-1.8-4.5-.9-1.2-2.1-2.1-3.6-2.7-1.5-.6-3.1-.9-4.9-.9s-3.6.3-5 1c-1.5.7-2.7 1.6-3.6 2.8-1 1.2-1.7 2.6-2.2 4.2s-.7 3.3-.7 5.2.2 3.5.7 5.1 1.2 3 2.2 4.2c1 1.2 2.2 2.2 3.7 2.8s3.2 1 5.2 1c2.8 0 5.2-.7 7.1-2.1 1.9-1.4 3.1-3.4 3.5-6h5.9c-.3 2.5-1.2 4.7-2.5 6.7s-3.2 3.6-5.5 4.8c-2.3 1.2-5.2 1.8-8.4 1.8Zm34.3 0c-2.3 0-4.3-.4-6-1.1-1.7-.8-3.2-1.8-4.4-3-1.2-1.2-2.1-2.7-2.7-4.2-.6-1.6-.9-3.2-.9-4.9v-1c0-1.7.3-3.3.9-4.9.6-1.6 1.5-3 2.7-4.3 1.2-1.3 2.7-2.3 4.4-3 1.7-.7 3.7-1.1 5.9-1.1s4.2.4 5.9 1.1c1.7.7 3.2 1.7 4.4 3 1.2 1.3 2.1 2.7 2.8 4.3.6 1.6.9 3.2.9 4.9v1c0 1.7-.3 3.3-.9 4.9-.6 1.6-1.5 3-2.7 4.2s-2.6 2.2-4.4 3c-1.7.8-3.7 1.1-6 1.1Zm0-4.9c1.8 0 3.3-.4 4.5-1.2 1.2-.8 2.2-1.8 2.9-3.2.7-1.3 1-2.8 1-4.5s-.3-3.2-1-4.6c-.7-1.3-1.6-2.4-2.9-3.2-1.2-.8-2.7-1.2-4.5-1.2s-3.2.4-4.5 1.2c-1.2.8-2.2 1.8-2.9 3.2-.7 1.3-1 2.9-1 4.6s.3 3.2 1 4.5c.7 1.3 1.6 2.4 2.9 3.2 1.2.8 2.8 1.2 4.5 1.2Zm29.3 4.8c-3 0-5.4-1-7-3s-2.4-4.9-2.4-8.7v-15h5.6v15.7c0 1.8.5 3.2 1.5 4.2s2.3 1.6 4 1.6 3.1-.6 4.2-1.7 1.7-2.6 1.7-4.5v-15.4h5.6v25.9h-4.5v-11h.6c0 2.6-.3 4.8-1 6.5-.7 1.7-1.7 3.1-3 4s-3 1.3-5 1.3h-.2Zm21.6-.8V1068h4.5v11.1h-.5c0-2.6.3-4.7 1-6.5.7-1.8 1.7-3.1 3.1-4 1.4-.9 3.2-1.4 5.2-1.4h.2c3.2 0 5.6 1 7.2 3 1.6 2 2.4 5 2.4 8.8v14.8h-5.6v-15.6c0-1.8-.5-3.2-1.5-4.3-1-1.1-2.4-1.7-4.2-1.7s-3.3.6-4.4 1.7c-1.1 1.1-1.7 2.6-1.7 4.5v15.3h-5.6Zm27.3-21.7v-4.2h18v4.2h-18Zm14.2 22c-2.1 0-4-.3-5.4-.9-1.5-.6-2.6-1.6-3.3-3s-1.1-3.3-1.1-5.7v-24.1h5.3v24.6c0 1.3.4 2.4 1.1 3.1.7.7 1.7 1.1 3 1.1h4.3v4.9h-3.9Zm10-.3V1068h4.5v10.8h-.2c0-3.7.8-6.5 2.4-8.3 1.6-1.8 4-2.8 7.2-2.8h.9v4.9h-1.7c-2.4 0-4.3.6-5.6 1.9-1.3 1.3-1.9 3.1-1.9 5.5v13.7h-5.6Zm26-.5-8.8-25.3h5.7l8.4 25.3h-5.3Zm-6.5 10.7v-4.9h4.3c1 0 1.8-.1 2.5-.4.7-.2 1.3-.7 1.7-1.2.4-.6.8-1.4 1.1-2.4l7.5-27.1h5.4l-8.2 28.4c-.5 1.8-1.2 3.2-2.1 4.4-.9 1.1-2.1 1.9-3.5 2.4s-3.1.8-5 .8h-3.8Zm7.9-10.7v-4.6h5.6v4.6h-5.6Zm31.2.7v-35.5h5.8v35.5h-5.8Zm4.8 0v-5.3h8c2 0 3.7-.3 5.2-.9 1.5-.6 2.8-1.5 3.9-2.6s1.9-2.4 2.5-4c.6-1.5.8-3.2.8-4.9s-.3-3.6-.8-5.1c-.6-1.5-1.4-2.8-2.5-3.9s-2.4-1.9-3.9-2.5c-1.5-.6-3.3-.9-5.2-.9h-8v-5.3h7.5c3.2 0 5.9.5 8.3 1.4 2.4 1 4.3 2.3 5.9 3.9 1.6 1.6 2.7 3.5 3.5 5.5.8 2 1.2 4.2 1.2 6.3v1.1c0 2-.4 4.1-1.2 6.2-.8 2.1-1.9 3.9-3.5 5.6-1.6 1.6-3.5 3-5.9 4-2.4 1-5.1 1.5-8.3 1.5h-7.5Zm836 936.9c-3.2 0-5.9-.6-8.2-1.7-2.3-1.1-4.1-2.6-5.5-4.4-1.4-1.8-2.4-3.8-3.1-5.9-.7-2.1-1-4.1-1-6.1v-1.1c0-2.1.3-4.3 1-6.4s1.7-4 3.1-5.8c1.4-1.7 3.2-3.1 5.4-4.2s4.9-1.6 7.9-1.6 5.9.6 8.2 1.7c2.3 1.1 4.1 2.7 5.5 4.7 1.4 2 2.2 4.4 2.4 7.1h-5.8c-.3-1.8-.9-3.3-1.8-4.5-.9-1.2-2.1-2.1-3.6-2.7-1.5-.6-3.1-.9-4.9-.9s-3.6.3-5 1c-1.5.7-2.7 1.6-3.6 2.8-1 1.2-1.7 2.6-2.2 4.2s-.7 3.3-.7 5.2.2 3.5.7 5.1 1.2 3 2.2 4.2c1 1.2 2.2 2.2 3.7 2.8s3.2 1 5.2 1c2.8 0 5.2-.7 7.1-2.1 1.9-1.4 3.1-3.4 3.5-6h5.9c-.3 2.5-1.2 4.7-2.5 6.7s-3.2 3.6-5.5 4.8c-2.3 1.2-5.2 1.8-8.4 1.8Zm34.3 0c-2.3 0-4.3-.4-6-1.1-1.7-.8-3.2-1.8-4.4-3-1.2-1.2-2.1-2.7-2.7-4.2-.6-1.6-.9-3.2-.9-4.9v-1c0-1.7.3-3.3.9-4.9s1.5-3 2.7-4.3c1.2-1.3 2.7-2.3 4.4-3 1.7-.7 3.7-1.1 5.9-1.1s4.2.4 5.9 1.1c1.7.7 3.2 1.7 4.4 3 1.2 1.3 2.1 2.7 2.8 4.3s.9 3.2.9 4.9v1c0 1.7-.3 3.3-.9 4.9-.6 1.6-1.5 3-2.7 4.2s-2.6 2.2-4.4 3c-1.7.8-3.7 1.1-6 1.1Zm0-4.9c1.8 0 3.3-.4 4.5-1.2 1.2-.8 2.2-1.8 2.9-3.2s1-2.8 1-4.5-.3-3.2-1-4.6-1.6-2.4-2.9-3.2-2.7-1.2-4.5-1.2-3.2.4-4.5 1.2-2.2 1.8-2.9 3.2-1 2.9-1 4.6.3 3.2 1 4.5c.7 1.3 1.6 2.4 2.9 3.2 1.2.8 2.8 1.2 4.5 1.2Zm29.3 4.8c-3 0-5.4-1-7-3s-2.4-4.9-2.4-8.7v-15h5.6v15.7c0 1.8.5 3.2 1.5 4.2s2.3 1.6 4 1.6 3.1-.6 4.2-1.7 1.7-2.6 1.7-4.5v-15.4h5.6v25.9h-4.5v-11h.6c0 2.6-.3 4.8-1 6.5-.7 1.7-1.7 3.1-3 4-1.3.9-3 1.3-5 1.3h-.2Zm21.5-.8v-25.9h4.5v11.1h-.5c0-2.6.3-4.7 1-6.5.7-1.8 1.7-3.1 3.1-4 1.4-.9 3.2-1.4 5.2-1.4h.2c3.2 0 5.6 1 7.2 3 1.6 2 2.4 5 2.4 8.8v14.8h-5.6v-15.6c0-1.8-.5-3.2-1.5-4.3-1-1.1-2.4-1.7-4.2-1.7s-3.3.6-4.4 1.7-1.7 2.6-1.7 4.5v15.3h-5.6Zm27.4-21.7v-4.2h18v4.2h-18Zm14.2 22c-2.1 0-4-.3-5.4-.9s-2.6-1.6-3.3-3-1.1-3.3-1.1-5.7v-24.1h5.3v24.6c0 1.3.4 2.4 1.1 3.1s1.7 1.1 3 1.1h4.3v4.9h-3.9Zm10-.3v-25.9h4.5v10.8h-.2c0-3.7.8-6.5 2.4-8.3 1.6-1.8 4-2.8 7.2-2.8h.9v4.9h-1.7c-2.4 0-4.3.6-5.6 1.9-1.3 1.3-1.9 3.1-1.9 5.5v13.7h-5.6Zm26-.5-8.8-25.3h5.7l8.4 25.3h-5.3Zm-6.6 10.7v-4.9h4.3c1 0 1.8-.1 2.5-.4.7-.2 1.3-.7 1.7-1.2.4-.6.8-1.4 1.1-2.4l7.5-27.1h5.4l-8.2 28.4c-.5 1.8-1.2 3.2-2.1 4.4-.9 1.1-2.1 1.9-3.5 2.4s-3.1.8-5 .8h-3.8Zm8-10.7v-4.6h5.6v4.6h-5.6Zm46.7 1.4c-3.2 0-5.9-.6-8.2-1.7-2.3-1.1-4.1-2.6-5.5-4.4-1.4-1.8-2.4-3.8-3.1-5.9-.7-2.1-1-4.1-1-6.1v-1.1c0-2.1.3-4.3 1-6.4s1.7-4 3.1-5.8c1.4-1.7 3.2-3.1 5.4-4.2s4.9-1.6 7.9-1.6 5.9.6 8.2 1.7c2.3 1.1 4.1 2.7 5.5 4.7 1.4 2 2.2 4.4 2.4 7.1h-5.8c-.3-1.8-.9-3.3-1.8-4.5-.9-1.2-2.1-2.1-3.6-2.7-1.5-.6-3.1-.9-4.9-.9s-3.6.3-5 1c-1.5.7-2.7 1.6-3.6 2.8-1 1.2-1.7 2.6-2.2 4.2s-.7 3.3-.7 5.2.2 3.5.7 5.1 1.2 3 2.2 4.2c1 1.2 2.2 2.2 3.7 2.8s3.2 1 5.2 1c2.8 0 5.2-.7 7.1-2.1 1.9-1.4 3.1-3.4 3.5-6h5.9c-.3 2.5-1.2 4.7-2.5 6.7s-3.2 3.6-5.5 4.8c-2.3 1.2-5.2 1.8-8.4 1.8Zm-210-1865c-3.2 0-5.9-.6-8.2-1.7-2.3-1.1-4.1-2.6-5.5-4.4-1.4-1.8-2.4-3.8-3.1-5.9-.7-2.1-1-4.1-1-6.1v-1.1c0-2.1.3-4.3 1-6.4.7-2.1 1.7-4 3.1-5.8 1.4-1.7 3.2-3.1 5.4-4.2s4.9-1.6 7.9-1.6 5.9.6 8.2 1.7c2.3 1.1 4.1 2.7 5.5 4.7 1.4 2 2.2 4.4 2.4 7.1h-5.8c-.3-1.8-.9-3.3-1.8-4.5-.9-1.2-2.1-2.1-3.6-2.7-1.5-.6-3.1-.9-4.9-.9s-3.6.3-5 1c-1.5.7-2.7 1.6-3.6 2.8-1 1.2-1.7 2.6-2.2 4.2s-.7 3.3-.7 5.2.2 3.5.7 5.1 1.2 3 2.2 4.2c1 1.2 2.2 2.2 3.7 2.8 1.5.7 3.2 1 5.2 1 2.8 0 5.2-.7 7.1-2.1 1.9-1.4 3.1-3.4 3.5-6h5.9c-.3 2.5-1.2 4.7-2.5 6.7s-3.2 3.6-5.5 4.8c-2.3 1.2-5.2 1.8-8.4 1.8Zm34.3 0c-2.3 0-4.3-.4-6-1.1-1.7-.8-3.2-1.8-4.4-3-1.2-1.2-2.1-2.7-2.7-4.2-.6-1.6-.9-3.2-.9-4.9v-1c0-1.7.3-3.3.9-4.9.6-1.6 1.5-3 2.7-4.3 1.2-1.3 2.7-2.3 4.4-3 1.7-.7 3.7-1.1 5.9-1.1s4.2.4 5.9 1.1c1.7.7 3.2 1.7 4.4 3 1.2 1.3 2.1 2.7 2.8 4.3.6 1.6.9 3.2.9 4.9v1c0 1.7-.3 3.3-.9 4.9-.6 1.6-1.5 3-2.7 4.2s-2.6 2.2-4.4 3c-1.7.8-3.7 1.1-6 1.1Zm0-4.9c1.8 0 3.3-.4 4.5-1.2 1.2-.8 2.2-1.8 2.9-3.2.7-1.3 1-2.8 1-4.5s-.3-3.2-1-4.6c-.7-1.3-1.6-2.4-2.9-3.2-1.2-.8-2.7-1.2-4.5-1.2s-3.2.4-4.5 1.2c-1.2.8-2.2 1.8-2.9 3.2-.7 1.3-1 2.9-1 4.6s.3 3.2 1 4.5c.7 1.3 1.6 2.4 2.9 3.2 1.2.8 2.8 1.2 4.5 1.2Zm29.3 4.8c-3 0-5.4-1-7-3-1.6-2-2.4-4.9-2.4-8.7v-15h5.6v15.7c0 1.8.5 3.2 1.5 4.2s2.3 1.6 4 1.6 3.1-.6 4.2-1.7 1.7-2.6 1.7-4.5v-15.4h5.6V165h-4.5v-11h.6c0 2.6-.3 4.8-1 6.5-.7 1.7-1.7 3.1-3 4s-3 1.3-5 1.3h-.2Zm21.5-.8v-25.9h4.5v11.1h-.5c0-2.6.3-4.7 1-6.5.7-1.8 1.7-3.1 3.1-4 1.4-.9 3.2-1.4 5.2-1.4h.2c3.2 0 5.6 1 7.2 3 1.6 2 2.4 5 2.4 8.8V165h-5.6v-15.6c0-1.8-.5-3.2-1.5-4.3-1-1.1-2.4-1.7-4.2-1.7s-3.3.6-4.4 1.7c-1.1 1.1-1.7 2.6-1.7 4.5v15.3h-5.6Zm27.4-21.7v-4.2h18v4.2h-18Zm14.1 22c-2.1 0-4-.3-5.4-.9-1.5-.6-2.6-1.6-3.3-3s-1.1-3.3-1.1-5.7v-24.1h5.3v24.6c0 1.3.4 2.4 1.1 3.1s1.7 1.1 3 1.1h4.3v4.9h-3.9Zm10-.3v-25.9h4.5V150h-.2c0-3.7.8-6.5 2.4-8.3 1.6-1.8 4-2.8 7.2-2.8h.9v4.9h-1.7c-2.4 0-4.3.6-5.6 1.9-1.3 1.3-1.9 3.1-1.9 5.5v13.7h-5.6Zm26.1-.5-8.8-25.3h5.7l8.4 25.3h-5.3Zm-6.6 10.7v-4.9h4.3c1 0 1.8-.1 2.5-.4.7-.2 1.3-.7 1.7-1.2.4-.6.8-1.4 1.1-2.4l7.5-27.1h5.4l-8.2 28.4c-.5 1.8-1.2 3.2-2.1 4.4-.9 1.1-2.1 1.9-3.5 2.4s-3.1.8-5 .8h-3.8Zm8-10.7V160h5.6v4.6h-5.6Zm27.5.5 12.3-35h9.6l12.7 35h-6l-11.1-31.2 2.4 1.1h-5.8l2.5-1.1-10.8 31.2h-5.8Zm8-9.8 1.8-5h14.7l1.9 5h-18.4Z"></path><path d="m2074.9 1080.2 4.3.2c-.2 5.5-.9 9.9-2.3 13.3-1.4 3.3-3.5 5.9-6.4 7.6-2.9 1.7-6.8 2.9-11.7 3.6l-.8-3.9c3.2-.5 5.8-1.1 7.9-2 2-.8 3.7-2.1 5.1-3.7 1.4-1.6 2.4-3.6 3-6 .6-2.4.9-5.4 1.1-9.1Zm-12 11.4c-1.6-3.7-3.3-7.4-5.1-11.1l-4 1.7c1.9 4.2 3.6 7.8 5 11l4.1-1.6Zm20.1-3v3.8h20.4c-.6 3-2.3 5.3-5 6.7-2.7 1.5-6.3 2.3-11 2.6l.6 3.8c6.8-.4 11.8-1.9 15.1-4.6 3.3-2.7 4.9-6.6 4.9-11.6v-.7h-25Zm23.1-8.3h-20.8v3.8h20.8v-3.8Zm-353.7 34c5.5 3 11.8 4.7 18.6 4.7s13-1.7 18.6-4.7l-18.6-27.7-18.6 27.7Zm18.6-73.3c-21.5 0-39 17.5-39 39s5.9 23.7 15.1 30.8l20.7-30.9h-20.6v-6.4h20.6v-6.6h-20.6v-6.4h47.7v6.4h-20.6v6.6h20.6v6.4h-20.6l20.7 30.9c9.2-7.1 15.1-18.3 15.1-30.8 0-21.5-17.5-39-39-39Zm80.3 35.6-4.7-.4c-5.1-.4-7.5-3.1-7.5-6.4s3-7.7 9.3-7.7 9.4 3.9 9.4 8.1h8.6c0-9.6-7.1-15.8-18-15.8s-17.9 6.1-17.9 15.4 6 13.5 15.3 14.2l4.7.4c6.4.6 9.5 3 9.5 6.7s-3.6 8-11.3 8-11.5-4.3-11.5-8.5h-8.6c0 9.4 7.2 16.2 20.1 16.2 12.1 0 19.9-6.4 19.9-15.7s-6.9-13.5-17.4-14.5Zm77.4 3.2v1.5c0 11-8.2 25.5-26.1 25.5-17.9 0-26.1-14.5-26.1-25.5v-1.5c0-12 8.6-25.4 26.1-25.4s26.1 13.3 26.1 25.4Zm-8.9.8c0-10.2-6.6-18-17.2-18s-17.2 7.8-17.2 18 6.6 18 17.2 18 17.2-8.4 17.2-18Zm48.5 6.5 13.6 18.4h-10.3l-12.2-17h-9.5v17h-8.8v-50h17.8c11.6 0 19.1 5.1 19.1 16v1.1c0 7.6-3.6 12.3-9.7 14.5Zm.9-14.9c0-5.4-3.5-9.1-9.1-9.1H1950v18.2h10.1c5.6 0 9.1-3.7 9.1-9.1Zm48.5-16.3 17.8 49.7h-9.1l-4.8-13.7h-22.2l-4.6 13.7h-8.8l17.2-49.7h14.4Zm1.3 28.5-7.3-21h-2.5l-7.1 21h17Z" class="st14"></path><path fill="#023a44" d="M3402.2 1826.3v-.7h-6.7v.2c-.1 1.4-1.2 2.6-2.6 2.9-.5.1-1.1.2-1.7.2H3372c-.6 0-1.1 0-1.7-.2-1.2-.2-2.1-1-2.5-2.2-.1-.5-.2-1-.2-1.4v-3.7h34.6v-8c0-.8 0-1.6-.2-2.3-.3-1.9-1.2-3.6-2.6-4.8-2-1.7-4.5-2.7-7.2-2.6h-21.3c-.7 0-1.4 0-2 .2-1.2.2-2.3.6-3.4 1.2-1.5.8-2.7 2-3.6 3.5-.7 1.3-1.1 2.8-1.1 4.3v12.3c0 .5 0 1 .1 1.5.4 2.6 1.8 4.7 4.2 6.1 1.8 1.1 3.9 1.6 6 1.6h20.8c1.7 0 3.4-.3 5-1.1 3-1.4 4.7-3.7 5.1-6.8Zm-34.4-14c0-1.6 1.2-3 2.8-3.2.6-.1 1.1-.2 1.7-.2h19c.7 0 1.4 0 2.1.3 1.3.4 2.2 1.5 2.2 2.8v3.9h-27.8v-3.7Zm181-1.3c-.3-1.9-1.2-3.6-2.6-4.8-2-1.7-4.5-2.7-7.2-2.6h-21.3c-.7 0-1.3 0-2 .2-1.2.2-2.3.6-3.4 1.2-1.5.8-2.7 2-3.6 3.5-.7 1.3-1.1 2.8-1.1 4.3v12.3c0 .5 0 1 .1 1.5.4 2.6 1.8 4.7 4.2 6.1 1.8 1.1 3.9 1.6 6 1.6h20.8c1.7 0 3.4-.3 5-1.1 3-1.4 4.7-3.7 5.1-6.8v-.7h-6.7v.2c-.1 1.4-1.2 2.6-2.6 2.9-.5.1-1.1.2-1.7.2h-19.2c-.6 0-1.1 0-1.7-.2-1.2-.2-2.1-1-2.5-2.2-.1-.5-.2-1-.2-1.4v-3.7h34.6v-8c0-.8 0-1.6-.2-2.3Zm-6.6 3.4v1.5h-27.8v-3.6c0-1.6 1.2-3 2.8-3.2.6-.1 1.1-.2 1.7-.2h19c.7 0 1.4 0 2.1.3 1.3.4 2.2 1.5 2.2 2.8v2.4Zm-242.4-3.4c-.3-1.9-1.2-3.6-2.6-4.8-2-1.7-4.5-2.7-7.2-2.6h-21.3c-.7 0-1.4 0-2 .2-1.2.2-2.3.6-3.4 1.2-1.5.8-2.7 2-3.6 3.5-.7 1.3-1.1 2.8-1.1 4.3v12.3c0 .5 0 1 .1 1.5.4 2.6 1.8 4.7 4.2 6.1 1.8 1.1 3.9 1.6 6 1.6h20.8c1.7 0 3.4-.3 5-1.1 3-1.4 4.7-3.7 5.1-6.8v-.7h-6.7v.2c-.1 1.4-1.2 2.6-2.6 2.9-.5.1-1.1.2-1.7.2h-19.2c-.6 0-1.1 0-1.7-.2-1.2-.2-2.1-1-2.5-2.2-.1-.5-.2-1-.2-1.4v-3.7h34.5v-8c0-.8 0-1.6-.2-2.4Zm-6.5 3.4v1.4h-27.7v-3.6c0-1.6 1.2-3 2.8-3.2.6-.1 1.1-.2 1.7-.2h19c.7 0 1.4 0 2.1.3 1.3.4 2.2 1.5 2.2 2.8v2.4Zm-178.4-2.8v-23.7h-6.7v46.2h6.7v-22.5Zm471.8-3.3c-.8-1.5-2-2.7-3.4-3.5-1.6-.9-3.4-1.3-5.2-1.3h-7.5c-1.5 0-3 .3-4.4.9-.9.4-1.7 1-2.4 1.7s0-2.6 0-2.6h-6.7s.2 30.6 0 30.6h6.7v-20.7c0-.5.1-1.1.2-1.6.1-1.1.9-2.1 1.9-2.5.7-.3 1.5-.4 2.3-.4h8.7c.5 0 .9 0 1.4.1 1.7.3 2.8 1.5 2.9 3.3h6.7c-.2-1.4-.6-2.8-1.2-4Zm-248.5 0c-.8-1.5-2-2.7-3.4-3.5-1.6-.9-3.4-1.3-5.2-1.3h-7.5c-1.5 0-3 .3-4.4.9-.9.4-1.7 1-2.4 1.7s0-2.6 0-2.6h-6.7s.2 30.6 0 30.6h6.7v-20.7c0-.5.1-1.1.2-1.6.1-1.1.9-2.1 1.9-2.5.7-.3 1.5-.4 2.3-.4h8.7c.5 0 .9 0 1.4.1 1.7.3 2.8 1.5 2.9 3.3h6.7c-.1-1.4-.6-2.8-1.2-4Zm-97.5 25.9h1.1c1.9-.2 3.6-.9 5.2-2 1.2-.9 2.2-2.1 2.8-3.5.5-1.2.7-2.4.7-3.7v-12.3c0-.8 0-1.5-.2-2.3-.5-2-1.7-3.7-3.3-4.9-1.9-1.4-4.3-2.1-6.7-2.1h-16.1c-.7 0-1.3 0-2 .2-1.5.3-2.9.8-4.2 1.7 0 0-.5.4-.9.6v-2.3h-6.7v38.8h6.8v-30.6c0-1.3.9-2.3 2.1-2.7.6-.2 1.2-.3 1.8-.3h18.8c.6 0 1.2.1 1.8.3 1.3.4 2.2 1.7 2.1 3.1v13.1c0 1.6-1.1 3-2.7 3.3-.5.1-1.1.2-1.7.2h-15.7l-5 5.4h21.9Zm210.6-.2v-45.1h-6.7v36.8c0 1.3-.9 2.3-2.1 2.7-.6.2-1.2.3-1.8.3h-18.8c-.6 0-1.2-.1-1.8-.3-1.3-.4-2.2-1.7-2.1-3.1v-13.1c0-1.6 1.1-3 2.7-3.3.5-.1 1.1-.2 1.7-.2h15.7l5-5.4h-23c-1.9.2-3.6.9-5.2 2-1.2.9-2.2 2.1-2.8 3.5-.5 1.2-.7 2.4-.7 3.7v12.3c0 .8 0 1.5.2 2.3.5 2 1.7 3.7 3.3 4.9 1.9 1.4 4.3 2.1 6.7 2.1h16.1c.7 0 1.3 0 2-.2 1.5-.2 2.9-.8 4.2-1.7 0 0 .4-.3.9-.6v2.2h6.7Zm-105.3-45.7v45.9h6.7v-45.9h-6.7zm-199 0v20.9h-27.7l-4.4 5.4h32.1v19.6h6.8v-45.9h-6.8Zm353 15.4v-.2h-6.7v2.4s-2.7-2.5-7.3-2.5h-15.8c-.7 0-1.4 0-2 .1-1.5.2-3 .8-4.2 1.6-1.7 1-3 2.6-3.6 4.4-.3 1-.5 2.1-.5 3.2v12.1c0 .7 0 1.3.1 1.9.2 1.5 1 3 2 4.1 1.9 2.1 4.6 3.3 7.5 3.3h16.9l5.1-5.3h-20.7c-.6 0-1.2 0-1.8-.3-1.4-.4-2.3-1.5-2.4-3.1v-12.8c0-.6 0-1.1.2-1.7.3-.9 1.1-1.6 2-1.9.6-.2 1.2-.3 1.8-.3h18.7c.6 0 1.2.1 1.7.3 1 .3 1.7 1.1 2 2.1.1.4.2.8.2 1.3v26c0 .3 0 .7-.2 1-.4.8-1 1.4-1.9 1.7-.6.2-1.3.4-2 .3h-18.6l-4.4 5.3h25.4c1.5-.2 3-.7 4.3-1.5 1.6-.9 2.8-2.3 3.5-3.9.5-1.2.7-2.5.7-3.7v-34Zm-298 0c0-.1-6.7-.1-6.7-.1v21.2c0 .5 0 .9-.2 1.4-.2 1-.9 1.8-1.8 2.2-.8.3-1.6.5-2.4.5h-18c-.6 0-1.1 0-1.7-.2-1.2-.2-2.1-1.1-2.5-2.2-.2-.5-.2-1-.2-1.6v-21.3h-6.7v21.2c0 .6 0 1.2.1 1.9.2 1.6.9 3.1 2 4.2 1.9 2.1 4.7 3.3 7.5 3.3h17.6c1.9 0 3.8-.4 5.4-1.5.3-.2.6-.5.9-.7v6.4c0 1-.5 1.9-1.4 2.4-.8.5-1.7.7-2.6.7h-18.7l-4.4 5.4h25.4c1.8-.2 3.5-.9 5-1.9 2.3-1.7 3.5-3.9 3.5-6.7v-34.5Z"></path><path fill="#e4282f" d="M3109.8 1946.8v-85.9h10.4v85.9h-10.4Zm29.1 0v-85.9h35.2c5.4 0 10.1.9 14.2 2.8 4.1 1.8 7.3 4.5 9.6 7.9 2.3 3.4 3.5 7.5 3.5 12.2v1.4c0 5.6-1.4 10.1-4.1 13.4-2.7 3.3-6 5.5-9.7 6.6v1.7c3 0 5.5 1 7.4 2.9 1.9 1.8 2.9 4.6 2.9 8.3v28.8h-10.3v-27.6c0-2.5-.7-4.3-2.1-5.6-1.4-1.3-3.4-2-6.1-2h-30.1v35.2h-10.4Zm10.5-44.6h23.7c5.7 0 10.1-1.4 13.2-4.1 3.1-2.7 4.7-6.6 4.7-11.5v-.9c0-4.9-1.5-8.7-4.6-11.5-3.1-2.7-7.5-4.1-13.3-4.1h-23.7v32Zm98.3 46.3c-10.4 0-18.6-3-24.8-8.9-6.2-5.9-9.3-14.6-9.3-26V1894c0-11.4 3.1-20 9.3-26 6.2-5.9 14.4-8.9 24.8-8.9s18.8 3 24.9 8.9c6.2 5.9 9.3 14.6 9.3 26v19.6c0 11.4-3.1 20-9.3 26-6.2 5.9-14.5 8.9-24.9 8.9Zm0-9.2c7.5 0 13.4-2.2 17.5-6.7s6.2-10.7 6.2-18.6v-20.4c0-7.9-2.1-14.1-6.2-18.6-4.1-4.5-10-6.7-17.5-6.7s-13.3 2.2-17.4 6.7c-4.1 4.5-6.2 10.7-6.2 18.6v20.4c0 7.9 2.1 14.1 6.2 18.6 4.1 4.5 9.9 6.7 17.4 6.7Zm50.4 7.5v-85.9h10.4v38.2h40.8v-38.2h10.4v85.9h-10.4v-38.4h-40.8v38.4h-10.4Zm73.4 0 26.9-85.9h18.4l26.9 85.9h-10.8l-6.7-21.7h-37l-6.7 21.7h-10.8Zm20.2-31.1h31.7l-14.9-48.6h-1.7l-15 48.6Zm-320.1-66.2-16.2-3.5 11-12.7c-9.6-9.5-30-11.9-51.1-5.1-3 .9-5.9 2.1-8.8 3.4.4-3.1.5-6.2.5-9.3 0-22.1-8.7-40.9-20.6-47.1l-8.8 14.4-8.4-14.5c-11.9 6.1-20.6 24.9-20.6 47 0 3.1.2 6.2.5 9.3-2.8-1.3-5.8-2.5-8.8-3.4-21.1-6.8-41.6-4.4-51.1 5.1l11 12.7-16.2 3.7c2.2 13.3 17.3 27.3 38.4 34.2 2.9.9 5.9 1.7 9 2.4-2.1 2.3-4.1 4.7-5.9 7.2-13 17.9-17 38.2-11 50.2l15.6-6.5-1.7 16.5c13.3 2 31.4-8 44.4-25.9 1.9-2.6 3.6-5.4 5.2-8 1.6 2.8 3.3 5.4 5.2 8 13 17.9 31 27.9 44.4 25.9l-1.7-16.5 15.6 6.5c6.1-12 2.1-32.3-11-50.2-1.8-2.5-3.8-4.9-5.9-7.2 3-.6 6-1.4 9-2.4 21.1-6.8 36.3-20.9 38.4-34.2"></path><path d="m3024.4 1886.8 31.2-40.6-.2-.2v-.3l-48.8-13.7-28.8-42.7h-.2c0 .1-.2 0-.2 0L2949 1832l-48.9 13.7v.2l-.1.2 31.1 40-1.2 50.8h.3v.3l47.7-16.6 47.7 16.6v-.2h.3l-1.4-50.2Zm-.2-.7-8.6-26.3 39-13.4-30.5 39.6Zm-46.5 33.9-22.5-16.3 20.1 1.5c0 1.2 1 2.1 2.2 2.1s2.1-.9 2.2-2l20.1-1.2-22 16Zm-46.6-34Zm73.4-53.5-27 8.7-26.4-8.7h53.5Zm-37.8 23.6-5.3 7.5-9.6-5.3c0-.2.2-.5.2-.8l14.7-1.4Zm20.3-.7-7.4-.7c0-1.2-1-2.1-2.2-2.1s-2.2.9-2.2 2.1l-7.4.7 9.6-13.5 9.6 13.5Zm-4 26.8 4.9-8.5 4 7c-.5.4-.8.9-.9 1.5h-8.1Zm-10.3.5h9.4l-4.7 8.2-4.7-8.2Zm-.3-.5-5.2-9.1 5.2-9h10.1l5.2 9-5.2 9h-10Zm-8.7 0c0-.6-.4-1.2-.9-1.5l4.1-7 4.9 8.5h-8.1Zm3.2-9.6-4.9-8.5h9.8l-4.9 8.5Zm10.5-15.5c.3 0 .6 0 .9-.2l3.9 6.8h-9.5l3.9-6.8c.3.1.6.2.9.2Zm5.7 7.1h9.8l-4.9 8.5-4.9-8.5Zm10.2 16c-.3 0-.6 0-.9.2l-4.2-7.3 5-8.7 4 8.7-3.3 7.2c-.2 0-.4-.1-.7-.1Zm.3-16.2 9.6-5.3.6.6-6.2 13.3-4-8.6Zm9.4-5.8-9.6 5.3-5.3-7.5 14.7 1.3c0 .3 0 .6.2.8Zm-10.2 5.4h-10l-4-7c.4-.3.7-.8.8-1.3l7.8.7 5.4 7.6Zm-17.5-8.3c.1.5.4 1 .8 1.3l-4.1 7h-10l5.4-7.6 7.8-.7Zm-23.7 3.4 9.6 5.3-4 8.6-6.2-13.3c.2-.2.5-.4.6-.6Zm9.9 5.8 5 8.7-4.2 7.3c-.3-.1-.5-.2-.8-.2s-.5 0-.7.1l-3.3-7.1 4-8.8Zm-1.1 16.1c-.6.4-1 1.1-1 1.9 0 1.2 1 2.2 2.2 2.2s.7 0 1-.3l4.3 6.1-16.6-1.5 7-15.1 3.1 6.7Zm2.6 3.5c.4-.3.6-.8.7-1.4h8.4l5 8.7-9.6-.9-4.5-6.5Zm14.1 7.8v11c-.3 0-.5.1-.8.2l-8.5-12.1 9.3.8Zm.6 11v-11l9.2-.8-8.5 12.1c-.2-.1-.5-.2-.8-.2Zm0-11.5 5-8.7h8.4c0 .5.3 1 .7 1.4l-4.5 6.5-9.6.9Zm14.6-7c.3.2.7.3 1 .3 1.2 0 2.2-1 2.2-2.2s-.4-1.5-1-1.9l3.2-6.8 7 15.2-16.6 1.5 4.3-6.1Zm5.6-11.2 6.4-13.7h.4v28.4l-6.8-14.8Zm5-16.3-15.2-1.4-9.4-13.2 24.7 14.2c0 .1 0 .2-.1.3Zm-35.8-1.4-15.2 1.4c0-.1 0-.3-.1-.4l24.7-14.2-9.4 13.2Zm-17 4.1h.4l6.4 13.7-6.8 14.8v-28.4Zm17.1 31.4 8.7 12.4-.3.3-24.7-14.2 16.2 1.4Zm11.7 12.5 8.7-12.4 16.3-1.4-24.7 14.2c0-.1-.2-.2-.3-.3Zm26.4-43.9c.8-.1 1.5-.7 1.8-1.5l8.1 1.8 8.7 26.6-18.5 2.5v-29.3Zm1.9-2v-.2c0-1.2-1-2.2-2.2-2.2s-1.4.3-1.8.9l-25.2-14.5 28.1-9 8.7 26.8-7.8-1.7Zm-58-25.1 27.5 9-25.2 14.5c-.4-.5-1-.9-1.8-.9-1.2 0-2.2 1-2.2 2.2v.2l-7.2 1.7 8.8-26.8Zm-8.9 27.4 7.5-1.8c.3.8 1 1.3 1.8 1.4v29.3l-18-2.4 8.7-26.5Zm9.4 29.6 25.6 14.8c0 .1-.1.3-.1.4l-20.8-1.6c0 .1-22.3-16-22.3-16l17.5 2.4Zm50.7 14-20.8 1.2c0-.2 0-.3-.1-.5l25.7-14.8 18.1-2.4-22.8 16.5Zm15.1-44.1-8.7-26.7 47.7 13.3-39 13.4Zm-9.6-27.4h-28l-.2-41.7 28.1 41.7Zm-28.5 0h-27.9l27.7-41.7.2 41.7Zm-28.8.7-8.7 26.7-39-13.3 47.7-13.3Zm-47.8 13.8 39 13.3-8.5 25.9-30.5-39.3Zm30.6 40.6 22.7 16.4-23.9 32.6 1.2-49Zm-.8 49.4 23.9-32.6 22.7 16.4-46.5 16.2Zm47.6-16.3 22.2-16.1 24.4 32.3-46.6-16.2Zm47.1 16-24.4-32.3 23-16.7 1.4 49ZM1965.7 1587h-24.2l-22-40.4h-9.5l-9.2 10.2v30.2h-18.7v-40.4h-7.7v-17.7h7.7v-42h18.7v42h2.1l35.8-42h25.2l-34.9 38.9 1.8 3h33.1v17.7h-22.5l24.4 40.4Zm-460-562-7.5 16.6H1481c.8 1 1.7 2.3 2.5 3.9s1.3 3.2 1.6 4.8h20.6l-7.5 16.6h-13.1c-.6 3.6-1.8 6.9-3.7 9.8s-4.2 5.5-7 7.6c-2.8 2.2-6 3.9-9.5 5.2-3.6 1.3-7.3 2.2-11.3 2.5l40.8 43.1h-26.6l-37.7-41.9v-16.6h11.1c1.4 0 3.2-.1 5.3-.3s4.3-.6 6.4-1.3c2.1-.7 4.1-1.6 5.8-2.9 1.8-1.3 3-3 3.6-5.2h-36l7.5-16.6h28.4c-.6-2-1.7-3.6-3.3-4.7-1.6-1.2-3.5-2-5.7-2.6-2.2-.6-4.7-.9-7.5-1.1-2.8-.2-5.6-.2-8.6-.2h-10.9l7.5-16.6h71.8Z" class="st14"></path><path d="M2130 1080h3" class="st9"></path><path d="M2135.9 1080h112.6" class="st5"></path><path d="M2250 1080h3m-666 0h3" class="st9"></path><path d="M1592.9 1080h112.6" class="st5"></path><path d="M1707 1080h3" class="st9"></path><path d="M1920 1290v3" class="st8"></path><path fill="none" stroke="red" stroke-dasharray="5.9 3" stroke-miterlimit="10" stroke-width="10" d="M1920 1296v114.5"></path><path d="M1920 1412v3" class="st8"></path><path d="M1920 747v3" class="st9"></path><path d="M1920 752.9v112.6" class="st5"></path><path d="M1920 867v3" class="st9"></path><path d="m1863 1179-8.7-26.3h4.4l7.6 23.4-1.6-.8h4.1l-1.7.8 7-23.4h4.3l-8.1 26.3h-7.2Zm27.3.6c-2 0-3.7-.4-5.1-1.1s-2.5-1.8-3.2-3.1c-.7-1.3-1.1-2.7-1.1-4.2h4.1c0 1.5.5 2.6 1.4 3.5.9.9 2.2 1.3 3.9 1.3s2-.2 2.8-.6c.8-.4 1.4-1 1.8-1.7.4-.7.6-1.6.6-2.6 0-1.5-.5-2.7-1.4-3.6-.9-.9-2.2-1.4-3.9-1.4s-1.4 0-1.9.3c-.5.2-1 .4-1.4.7l-2.1-3.6 9.4-6.6-.4-.6h-12v-3.6h16.6v5l-8.6 6-2.7-.2c.4-.1.9-.3 1.4-.4.5 0 1.1-.1 1.7-.1 2 0 3.6.4 5 1.1 1.4.7 2.4 1.7 3.2 2.9s1.1 2.5 1.1 4v.5c0 1.5-.4 2.8-1.1 4.1-.7 1.2-1.8 2.2-3.2 3-1.4.8-3.1 1.1-5.1 1.1Zm23-.6v-26.3h4.3v26.3h-4.3Zm3.5-11.2v-3.9h14.9v3.9h-14.9Zm14 11.2v-26.3h4.3v26.3h-4.3Zm17.6.6c-2.3 0-4-.7-5.3-2.2-1.2-1.5-1.8-3.7-1.8-6.5v-11.2h4.2v11.8c0 1.3.4 2.4 1.1 3.2.7.8 1.8 1.2 3 1.2s2.4-.4 3.2-1.2c.8-.8 1.2-2 1.2-3.4v-11.5h4.2v19.4h-3.3v-8.3h.4c0 1.9-.3 3.6-.8 4.9-.5 1.3-1.3 2.3-2.3 3-1 .7-2.2 1-3.8 1h-.2Zm27 0c-1.6 0-3-.3-4.2-1-1.2-.7-2.2-1.7-2.9-3-.7-1.3-1.1-2.9-1.2-4.8h.9v8.2h-3.3v-26.3h4.2v13l-1.3 2.3c0-2.1.5-3.8 1.2-5.1.7-1.3 1.7-2.3 2.9-3 1.2-.6 2.5-1 4-1s2.6.3 3.7.8 2.1 1.2 2.9 2.1c.8.9 1.4 2 1.8 3.2s.6 2.5.6 3.9v.7c0 1.4-.2 2.7-.6 3.9-.4 1.2-1.1 2.3-1.9 3.2-.8.9-1.8 1.7-3 2.2-1.2.5-2.4.8-3.9.8Zm-.8-3.6c1.2 0 2.2-.3 3.1-.9.9-.6 1.6-1.4 2.1-2.4s.7-2.2.7-3.5-.3-2.5-.8-3.5-1.2-1.8-2.1-2.3c-.9-.6-1.9-.8-3.1-.8s-2 .2-3 .7c-.9.5-1.6 1.2-2.2 2.1-.6.9-.8 2-.8 3.3v1.5c0 1.2.3 2.3.8 3.2s1.3 1.5 2.2 2 1.9.7 2.9.7Zm-93.1 46.8c-2.4 0-4.4-.4-6.1-1.2-1.7-.8-3.1-1.9-4.1-3.3-1-1.4-1.8-2.8-2.3-4.4-.5-1.6-.7-3.1-.7-4.6v-.8c0-1.6.3-3.2.8-4.8.5-1.6 1.3-3 2.3-4.3s2.4-2.3 4.1-3.1 3.6-1.2 5.9-1.2 4.4.4 6.2 1.3c1.7.8 3.1 2 4.1 3.5s1.6 3.3 1.8 5.3h-4.4c-.2-1.3-.6-2.5-1.3-3.4-.7-.9-1.6-1.6-2.7-2-1.1-.5-2.3-.7-3.7-.7s-2.7.3-3.8.8-2 1.2-2.7 2.1c-.7.9-1.3 1.9-1.6 3.1-.4 1.2-.6 2.5-.6 3.9s.2 2.6.6 3.8c.4 1.2.9 2.2 1.7 3.2.7.9 1.7 1.6 2.8 2.1 1.1.5 2.4.8 3.9.8 2.1 0 3.9-.5 5.3-1.6 1.4-1 2.3-2.5 2.6-4.5h4.4c-.2 1.8-.9 3.5-1.9 5.1-1 1.5-2.4 2.7-4.1 3.6-1.8.9-3.9 1.4-6.3 1.4Zm16.6-.6v-26.3h4.2v15.5h-.9c0-1.9.2-3.6.7-5s1.2-2.4 2.3-3.2c1-.7 2.3-1.1 3.9-1.1h.2c2.3 0 4 .8 5.2 2.3s1.7 3.7 1.7 6.6v11.1h-4.2v-11.7c0-1.4-.4-2.5-1.2-3.3-.8-.8-1.8-1.2-3.1-1.2s-2.5.5-3.3 1.4c-.8.9-1.3 2.1-1.3 3.6v11.2h-4.2Zm28.6.5c-1.4 0-2.7-.2-3.7-.7-1.1-.5-1.9-1.2-2.4-2.2s-.9-2.1-.9-3.4.3-2.5 1-3.5 1.6-1.6 2.8-2.1 2.7-.7 4.4-.7h4.9v2.8h-5c-1.3 0-2.2.3-2.9.9s-1 1.4-1 2.4.3 1.8 1 2.4 1.6.9 2.9.9 1.5-.1 2.1-.4c.7-.3 1.2-.7 1.7-1.4.4-.6.7-1.6.7-2.7l1.1 1.4c-.1 1.4-.5 2.5-1 3.4-.5.9-1.3 1.6-2.2 2.1-.9.5-2.1.7-3.5.7Zm6.3-.5v-5.8h-.7v-6.6c0-1.2-.3-2.1-.9-2.7s-1.5-.9-2.8-.9h-4.6c-.8 0-1.5 0-2.1.1v-3.6c.5 0 1.1 0 1.7-.1h4c2 0 3.6.3 4.9.8s2.3 1.3 2.9 2.4c.6 1.1 1 2.5 1 4.4v12.1h-3.3Zm7.3-16.2v-3.2h7.1v3.2h-7.1Zm4.2-5.9c-.9 0-1.5-.2-1.9-.7-.4-.5-.6-1-.6-1.8s.2-1.3.6-1.7 1.1-.7 1.9-.7 1.5.2 2 .7c.4.5.6 1 .6 1.7s-.2 1.3-.6 1.8c-.4.5-1.1.7-2 .7Zm-1.4 22.1v-19.4h4.2v19.4h-4.2Zm10.5 0v-19.4h3.3v8.3h-.4c0-1.9.3-3.5.8-4.9.5-1.3 1.3-2.3 2.4-3 1.1-.7 2.4-1 3.9-1h.2c2.4 0 4.2.8 5.4 2.3 1.2 1.5 1.8 3.7 1.8 6.6v11.1h-4.2v-11.7c0-1.3-.4-2.4-1.2-3.3-.8-.8-1.8-1.2-3.2-1.2s-2.5.4-3.3 1.3c-.8.9-1.3 2-1.3 3.4v11.5h-4.2Z" class="st14"></path><path d="M1859.2 276.8v-26.5h4.3v26.5h-4.3Zm3.6-8.6v-3.8h5.5c1.2 0 2.1-.2 2.9-.7s1.3-1.1 1.7-1.8.6-1.7.6-2.6-.2-1.9-.6-2.7c-.4-.8-1-1.4-1.7-1.8-.8-.4-1.7-.6-2.9-.6h-5.5v-3.8h5c2.2 0 4 .4 5.5 1.1 1.5.7 2.6 1.7 3.4 3 .8 1.3 1.2 2.8 1.2 4.6v.6c0 1.8-.4 3.3-1.2 4.6-.8 1.3-1.9 2.3-3.4 3s-3.3 1.1-5.5 1.1h-5Zm19.5 8.6v-19.4h3.3v8.1h-.1c0-2.8.6-4.9 1.8-6.2 1.2-1.4 3-2.1 5.4-2.1h.7v3.7h-1.3c-1.8 0-3.2.5-4.2 1.5s-1.5 2.4-1.5 4.2v10.3h-4.2Zm12.9-16.2v-3.2h7.1v3.2h-7.1Zm4.3-5.9c-.9 0-1.5-.2-1.9-.7-.4-.5-.6-1-.6-1.8s.2-1.3.6-1.7 1.1-.7 1.9-.7 1.5.2 2 .7c.4.5.6 1 .6 1.7s-.2 1.3-.6 1.8c-.4.5-1.1.7-2 .7Zm-1.4 22.1v-19.4h4.2v19.4h-4.2Zm14.5 0-6.3-19.4h4.4l6.1 19.4h-4.2Zm1.2 0v-3.4h4.7v3.4h-4.7Zm1.8 0 5.3-19.4h4.1l-5.5 19.4h-3.9Zm18.8.5c-1.4 0-2.7-.2-3.7-.7-1.1-.5-1.9-1.2-2.4-2.2s-.9-2.1-.9-3.4.3-2.5 1-3.5 1.6-1.6 2.8-2.1 2.7-.7 4.4-.7h4.9v2.8h-5c-1.3 0-2.2.3-2.9.9s-1 1.4-1 2.4.3 1.8 1 2.4 1.6.9 2.9.9 1.5-.1 2.1-.4c.7-.3 1.2-.7 1.7-1.4.4-.6.7-1.6.7-2.7l1.1 1.4c-.1 1.4-.5 2.5-1 3.4-.5.9-1.3 1.6-2.2 2.1-.9.5-2.1.7-3.5.7Zm6.3-.5V271h-.7v-6.6c0-1.2-.3-2.1-.9-2.7s-1.5-.9-2.8-.9h-4.6c-.8 0-1.5 0-2.1.1v-3.6c.5 0 1.1 0 1.7-.1h4c2 0 3.6.3 4.9.8s2.3 1.3 2.9 2.4c.6 1.1 1 2.5 1 4.4v12.1h-3.3Zm6.5-16.3v-3.1h13.5v3.1h-13.5Zm10.7 16.5c-1.6 0-3-.2-4.1-.6-1.1-.4-1.9-1.2-2.5-2.2-.6-1.1-.8-2.5-.8-4.3v-18.1h4v18.5c0 1 .3 1.8.8 2.3s1.3.8 2.3.8h3.2v3.7h-2.9Zm15.8.4c-1.7 0-3.1-.3-4.4-.9s-2.3-1.3-3.1-2.3c-.8-.9-1.4-2-1.8-3.2-.4-1.2-.6-2.4-.6-3.7v-.7c0-1.3.2-2.5.6-3.7.4-1.2 1-2.3 1.8-3.2.8-.9 1.8-1.7 3-2.3 1.2-.6 2.6-.8 4.2-.8s3.8.5 5.2 1.4 2.4 2.1 3.1 3.5c.7 1.5 1 3 1 4.7v1.7h-17.2v-2.8h14.4l-1.2 1.4c0-1.3-.2-2.4-.6-3.4s-1-1.7-1.8-2.2c-.8-.5-1.8-.8-3-.8s-2.3.3-3.1.9c-.8.6-1.5 1.4-1.9 2.4s-.6 2.2-.6 3.6.2 2.5.6 3.5c.4 1 1 1.8 1.9 2.4s2 .9 3.3.9 2.4-.3 3.3-.9 1.4-1.3 1.6-2.1h3.9c-.3 1.3-.8 2.5-1.6 3.5s-1.8 1.7-3 2.3c-1.2.5-2.6.8-4.2.8Zm-108 43.2c-2.3 0-4.2-.4-5.7-1.1-1.6-.7-2.8-1.7-3.6-3-.8-1.3-1.2-2.7-1.2-4.4h4.2c0 .7.2 1.5.6 2.2.4.7 1.1 1.3 2 1.8.9.5 2.1.7 3.7.7s2.6-.2 3.5-.6c.9-.4 1.6-.9 2.1-1.6.4-.7.7-1.4.7-2.2s-.4-1.8-1.3-2.5-2.2-1-3.9-1.2l-2.6-.3c-2.4-.2-4.4-.9-5.8-2.2-1.4-1.3-2.2-3-2.2-5.2s.4-3 1.2-4.2c.8-1.2 1.9-2.1 3.3-2.8 1.4-.7 3.1-1 4.9-1s3.6.3 5 1 2.5 1.6 3.3 2.9 1.2 2.7 1.2 4.4h-4.2c0-.8-.2-1.5-.6-2.2-.4-.7-.9-1.2-1.7-1.7-.8-.4-1.8-.6-3-.6s-2.1.2-2.9.6c-.8.4-1.3.9-1.7 1.6-.4.6-.6 1.3-.6 2.1s.3 1.7 1 2.4 1.7 1.1 3.1 1.2l2.6.2c1.8.1 3.5.5 4.8 1.2 1.4.6 2.4 1.5 3.2 2.5.8 1.1 1.1 2.3 1.1 3.8s-.4 3.1-1.3 4.3-2.1 2.2-3.7 2.9c-1.6.7-3.4 1-5.5 1Zm22 0c-2.3 0-4-.7-5.3-2.2-1.2-1.5-1.8-3.7-1.8-6.5v-11.2h4.2v11.8c0 1.3.4 2.4 1.1 3.2.7.8 1.8 1.2 3 1.2s2.4-.4 3.2-1.2c.8-.8 1.2-2 1.2-3.4v-11.5h4.2v19.4h-3.3v-8.3h.4c0 1.9-.3 3.6-.8 4.9-.5 1.3-1.3 2.3-2.3 3-1 .7-2.2 1-3.8 1h-.2Zm27 0c-1.6 0-3-.3-4.2-1-1.2-.7-2.2-1.7-2.9-3-.7-1.3-1.1-2.9-1.2-4.8h.9v8.2h-3.3v-26.3h4.2v13l-1.3 2.3c0-2.1.5-3.8 1.2-5.1.7-1.3 1.7-2.3 2.9-3 1.2-.6 2.5-1 4-1s2.6.3 3.7.8 2.1 1.2 2.9 2.1c.8.9 1.4 2 1.8 3.2s.6 2.5.6 3.9v.7c0 1.4-.2 2.7-.6 3.9-.4 1.2-1.1 2.3-1.9 3.2-.8.9-1.8 1.7-3 2.2-1.2.5-2.4.8-3.9.8Zm-.8-3.6c1.2 0 2.2-.3 3.1-.9.9-.6 1.6-1.4 2.1-2.4s.7-2.2.7-3.5-.3-2.5-.8-3.5-1.2-1.8-2.1-2.3c-.9-.6-1.9-.8-3.1-.8s-2 .2-3 .7c-.9.5-1.6 1.2-2.2 2.1-.6.9-.8 2-.8 3.3v1.5c0 1.2.3 2.3.8 3.2s1.3 1.5 2.2 2 1.9.7 2.9.7Zm15 3v-19.4h3.3v8.3h-.4c0-1.9.3-3.5.8-4.9.5-1.3 1.3-2.3 2.4-3 1.1-.7 2.4-1 3.9-1h.2c2.4 0 4.2.8 5.4 2.3 1.2 1.5 1.8 3.7 1.8 6.6V320h-4.2v-11.7c0-1.3-.4-2.4-1.2-3.3-.8-.8-1.8-1.2-3.2-1.2s-2.5.4-3.3 1.3c-.8.9-1.3 2-1.3 3.4V320h-4.2Zm31.6.6c-1.7 0-3.1-.3-4.4-.9s-2.3-1.3-3.1-2.3c-.8-.9-1.4-2-1.8-3.2-.4-1.2-.6-2.4-.6-3.7v-.7c0-1.3.2-2.5.6-3.7.4-1.2 1-2.3 1.8-3.2.8-.9 1.8-1.7 3-2.3 1.2-.6 2.6-.8 4.2-.8s3.8.5 5.2 1.4 2.4 2.1 3.1 3.5c.7 1.5 1 3 1 4.7v1.7h-17.2v-2.8h14.4l-1.2 1.4c0-1.3-.2-2.4-.6-3.4s-1-1.7-1.8-2.2c-.8-.5-1.8-.8-3-.8s-2.3.3-3.1.9c-.8.6-1.5 1.4-1.9 2.4s-.6 2.2-.6 3.6.2 2.5.6 3.5c.4 1 1 1.8 1.9 2.4s2 .9 3.3.9 2.4-.3 3.3-.9 1.4-1.3 1.6-2.1h3.9c-.3 1.3-.8 2.5-1.6 3.5s-1.8 1.7-3 2.3c-1.2.5-2.6.8-4.2.8Zm11.1-16.9v-3.1h13.5v3.1h-13.5Zm10.6 16.5c-1.6 0-3-.2-4.1-.6-1.1-.4-1.9-1.2-2.5-2.2-.6-1.1-.8-2.5-.8-4.3V295h4v18.5c0 1 .3 1.8.8 2.3s1.3.8 2.3.8h3.2v3.7h-2.9Z"></path><path d="M1880 363.8c-2.4 0-4.4-.4-6.1-1.2-1.7-.8-3.1-1.9-4.1-3.3-1-1.4-1.8-2.8-2.3-4.4-.5-1.6-.7-3.1-.7-4.6v-.8c0-1.6.3-3.2.8-4.8.5-1.6 1.3-3 2.3-4.3s2.4-2.3 4.1-3.1 3.6-1.2 5.9-1.2 4.4.4 6.2 1.3c1.7.8 3.1 2 4.1 3.5s1.6 3.3 1.8 5.3h-4.4c-.2-1.3-.6-2.5-1.3-3.4-.7-.9-1.6-1.6-2.7-2-1.1-.5-2.3-.7-3.7-.7s-2.7.3-3.8.8-2 1.2-2.7 2.1c-.7.9-1.3 1.9-1.6 3.1-.4 1.2-.6 2.5-.6 3.9s.2 2.6.6 3.8c.4 1.2.9 2.2 1.7 3.2.7.9 1.7 1.6 2.8 2.1 1.1.5 2.4.8 3.9.8 2.1 0 3.9-.5 5.3-1.6 1.4-1 2.3-2.5 2.6-4.5h4.4c-.2 1.8-.9 3.5-1.9 5.1-1 1.5-2.4 2.7-4.1 3.6-1.8.9-3.9 1.4-6.3 1.4Zm17-.5v-26.6h4.3v26.6h-4.3Zm3.6-12.4v-2.7h6c1.4 0 2.4-.4 3-1.1.6-.7 1-1.7 1-2.8s-.3-2.1-1-2.9c-.6-.7-1.6-1.1-3-1.1h-6v-3.6h5.4c2.9 0 5.1.6 6.6 1.9 1.5 1.2 2.2 3 2.2 5.3v.5c0 1.6-.4 2.9-1.1 3.9-.8 1-1.8 1.6-3.1 2-1.3.4-2.9.6-4.6.6h-5.4Zm0 12.4v-3.6h6.9c1.3 0 2.3-.4 3-1.1s1.1-1.7 1.1-3-.3-2.3-1-3c-.7-.7-1.7-1.1-3-1.1h-6.9v-2.7h6.5c1.7 0 3.3.2 4.6.6s2.4 1.1 3.1 2.1c.8 1 1.2 2.3 1.2 3.9v.5c0 1.5-.3 2.9-1 3.9s-1.6 1.9-3 2.5c-1.3.6-2.9.8-4.9.8h-6.5Zm21.1 0v-26.6h4.3v26.6h-4.3Zm3.6 0v-4h6c1.5 0 2.8-.2 3.9-.7 1.2-.5 2.1-1.1 3-2 .8-.8 1.4-1.8 1.9-3 .4-1.1.6-2.4.6-3.7s-.2-2.7-.6-3.8c-.4-1.1-1-2.1-1.9-2.9s-1.8-1.4-3-1.9c-1.2-.4-2.5-.7-3.9-.7h-6v-4h5.7c2.4 0 4.4.4 6.2 1.1 1.8.7 3.2 1.7 4.4 2.9 1.2 1.2 2.1 2.6 2.6 4.1.6 1.5.9 3.1.9 4.8v.8c0 1.5-.3 3.1-.9 4.6-.6 1.5-1.5 2.9-2.6 4.2-1.2 1.2-2.6 2.2-4.4 3-1.8.8-3.8 1.1-6.2 1.1h-5.7Zm36.4.5c-2.4 0-4.4-.4-6.1-1.2-1.7-.8-3.1-1.9-4.1-3.3-1-1.4-1.8-2.8-2.3-4.4-.5-1.6-.7-3.1-.7-4.6v-.8c0-1.6.3-3.2.8-4.8.5-1.6 1.3-3 2.3-4.3s2.4-2.3 4.1-3.1 3.6-1.2 5.9-1.2 4.4.4 6.2 1.3c1.7.8 3.1 2 4.1 3.5s1.6 3.3 1.8 5.3h-4.4c-.2-1.3-.6-2.5-1.3-3.4-.7-.9-1.6-1.6-2.7-2-1.1-.5-2.3-.7-3.7-.7s-2.7.3-3.8.8-2 1.2-2.7 2.1c-.7.9-1.3 1.9-1.6 3.1-.4 1.2-.6 2.5-.6 3.9s.2 2.6.6 3.8c.4 1.2.9 2.2 1.7 3.2.7.9 1.7 1.6 2.8 2.1 1.1.5 2.4.8 3.9.8 2.1 0 3.9-.5 5.3-1.6 1.4-1 2.3-2.5 2.6-4.5h4.4c-.2 1.8-.9 3.5-1.9 5.1-1 1.5-2.4 2.7-4.1 3.6-1.8.9-3.9 1.4-6.3 1.4Zm-82.8 20.1v-3.8h19.9v3.8h-19.9Zm7.8 22.5v-23.2h4.3v23.2h-4.3Zm12.7 0 6.6-10.3v.8c-.1 0-6.3-9.9-6.3-9.9h4.6l4.3 7.1h.5l4-7.1h4.3l-5.9 9.8v-.7c.1 0 7.1 10.3 7.1 10.3h-4.6l-5-7.6h-.5l-4.8 7.6h-4.3Zm22.9 0V387h3.3v8.3h-.4c0-1.9.3-3.5.8-4.9.5-1.3 1.3-2.3 2.4-3 1.1-.7 2.4-1 3.9-1h.2c2.4 0 4.2.8 5.4 2.3 1.2 1.5 1.8 3.7 1.8 6.6v11.1h-4.2v-11.7c0-1.3-.4-2.4-1.2-3.3-.8-.8-1.8-1.2-3.2-1.2s-2.5.4-3.3 1.3c-.8.9-1.3 2-1.3 3.4v11.5h-4.2Zm29.9.6c-2.6 0-4.7-.6-6.1-1.7-1.5-1.1-2.2-2.6-2.3-4.6h3.9c0 .7.4 1.4 1.1 2 .7.6 1.8.9 3.4.9s2.4-.3 3.2-.8c.8-.5 1.2-1.2 1.2-2s-.3-1.3-.8-1.7-1.5-.7-2.9-.8l-1.9-.2c-2-.2-3.6-.8-4.7-1.8s-1.7-2.3-1.7-3.9.3-2.4 1-3.3c.6-.9 1.5-1.6 2.7-2.1 1.1-.5 2.5-.7 3.9-.7 2.3 0 4.2.5 5.6 1.5 1.4 1 2.1 2.5 2.2 4.5h-3.9c0-.7-.4-1.4-1-1.9s-1.6-.8-2.9-.8-2.1.2-2.8.7c-.6.5-1 1.1-1 1.8s.2 1.2.7 1.6c.5.4 1.3.6 2.3.8l1.9.2c2.2.2 3.9.8 5.2 1.8 1.3 1 1.9 2.3 1.9 4s-.3 2.3-1 3.3c-.7.9-1.7 1.7-2.9 2.2s-2.7.8-4.3.8Z" class="st12"></path><path d="M1859.2 1781.7v-26.5h4.3v26.5h-4.3Zm3.6-8.6v-3.8h5.5c1.2 0 2.1-.2 2.9-.7s1.3-1.1 1.7-1.8.6-1.7.6-2.6-.2-1.9-.6-2.7c-.4-.8-1-1.4-1.7-1.8-.8-.4-1.7-.6-2.9-.6h-5.5v-3.8h5c2.2 0 4 .4 5.5 1.1 1.5.7 2.6 1.7 3.4 3 .8 1.3 1.2 2.8 1.2 4.6v.6c0 1.8-.4 3.3-1.2 4.6-.8 1.3-1.9 2.3-3.4 3s-3.3 1.1-5.5 1.1h-5Zm19.5 8.6v-19.4h3.3v8.1h-.1c0-2.8.6-4.9 1.8-6.2 1.2-1.4 3-2.1 5.4-2.1h.7v3.7h-1.3c-1.8 0-3.2.5-4.2 1.5s-1.5 2.4-1.5 4.2v10.3h-4.2Zm12.9-16.2v-3.2h7.1v3.2h-7.1Zm4.3-5.9c-.9 0-1.5-.2-1.9-.7-.4-.5-.6-1-.6-1.8s.2-1.3.6-1.7 1.1-.7 1.9-.7 1.5.2 2 .7c.4.5.6 1 .6 1.7s-.2 1.3-.6 1.8c-.4.5-1.1.7-2 .7Zm-1.4 22.1v-19.4h4.2v19.4h-4.2Zm14.5 0-6.3-19.4h4.4l6.1 19.4h-4.2Zm1.2 0v-3.4h4.7v3.4h-4.7Zm1.8 0 5.3-19.4h4.1l-5.5 19.4h-3.9Zm18.8.5c-1.4 0-2.7-.2-3.7-.7-1.1-.5-1.9-1.2-2.4-2.2s-.9-2.1-.9-3.4.3-2.5 1-3.5 1.6-1.6 2.8-2.1 2.7-.7 4.4-.7h4.9v2.8h-5c-1.3 0-2.2.3-2.9.9s-1 1.4-1 2.4.3 1.8 1 2.4 1.6.9 2.9.9 1.5-.1 2.1-.4c.7-.3 1.2-.7 1.7-1.4.4-.6.7-1.6.7-2.7l1.1 1.4c-.1 1.4-.5 2.5-1 3.4-.5.9-1.3 1.6-2.2 2.1-.9.5-2.1.7-3.5.7Zm6.3-.5v-5.8h-.7v-6.6c0-1.2-.3-2.1-.9-2.7s-1.5-.9-2.8-.9h-4.6c-.8 0-1.5 0-2.1.1v-3.6c.5 0 1.1 0 1.7-.1h4c2 0 3.6.3 4.9.8s2.3 1.3 2.9 2.4c.6 1.1 1 2.5 1 4.4v12.1h-3.3Zm6.5-16.3v-3.1h13.5v3.1h-13.5Zm10.7 16.5c-1.6 0-3-.2-4.1-.6-1.1-.4-1.9-1.2-2.5-2.2-.6-1.1-.8-2.5-.8-4.3v-18.1h4v18.5c0 1 .3 1.8.8 2.3s1.3.8 2.3.8h3.2v3.7h-2.9Zm15.8.4c-1.7 0-3.1-.3-4.4-.9s-2.3-1.3-3.1-2.3c-.8-.9-1.4-2-1.8-3.2-.4-1.2-.6-2.4-.6-3.7v-.7c0-1.3.2-2.5.6-3.7.4-1.2 1-2.3 1.8-3.2.8-.9 1.8-1.7 3-2.3 1.2-.6 2.6-.8 4.2-.8s3.8.5 5.2 1.4 2.4 2.1 3.1 3.5c.7 1.5 1 3 1 4.7v1.7h-17.2v-2.8h14.4l-1.2 1.4c0-1.3-.2-2.4-.6-3.4s-1-1.7-1.8-2.2c-.8-.5-1.8-.8-3-.8s-2.3.3-3.1.9c-.8.6-1.5 1.4-1.9 2.4s-.6 2.2-.6 3.6.2 2.5.6 3.5c.4 1 1 1.8 1.9 2.4s2 .9 3.3.9 2.4-.3 3.3-.9 1.4-1.3 1.6-2.1h3.9c-.3 1.3-.8 2.5-1.6 3.5s-1.8 1.7-3 2.3c-1.2.5-2.6.8-4.2.8Zm-108 43.2c-2.3 0-4.2-.4-5.7-1.1-1.6-.7-2.8-1.7-3.6-3-.8-1.3-1.2-2.7-1.2-4.4h4.2c0 .7.2 1.5.6 2.2.4.7 1.1 1.3 2 1.8.9.5 2.1.7 3.7.7s2.6-.2 3.5-.6c.9-.4 1.6-.9 2.1-1.6.4-.7.7-1.4.7-2.2s-.4-1.8-1.3-2.5-2.2-1-3.9-1.2l-2.6-.3c-2.4-.2-4.4-.9-5.8-2.2-1.4-1.3-2.2-3-2.2-5.2s.4-3 1.2-4.2c.8-1.2 1.9-2.1 3.3-2.8 1.4-.7 3.1-1 4.9-1s3.6.3 5 1 2.5 1.6 3.3 2.9 1.2 2.7 1.2 4.4h-4.2c0-.8-.2-1.5-.6-2.2-.4-.7-.9-1.2-1.7-1.7-.8-.4-1.8-.6-3-.6s-2.1.2-2.9.6c-.8.4-1.3.9-1.7 1.6-.4.6-.6 1.3-.6 2.1s.3 1.7 1 2.4 1.7 1.1 3.1 1.2l2.6.2c1.8.1 3.5.5 4.8 1.2 1.4.6 2.4 1.5 3.2 2.5.8 1.1 1.1 2.3 1.1 3.8s-.4 3.1-1.3 4.3-2.1 2.2-3.7 2.9c-1.6.7-3.4 1-5.5 1Zm22-.1c-2.3 0-4-.7-5.3-2.2-1.2-1.5-1.8-3.7-1.8-6.5v-11.2h4.2v11.8c0 1.3.4 2.4 1.1 3.2.7.8 1.8 1.2 3 1.2s2.4-.4 3.2-1.2c.8-.8 1.2-2 1.2-3.4v-11.5h4.2v19.4h-3.3v-8.3h.4c0 1.9-.3 3.6-.8 4.9-.5 1.3-1.3 2.3-2.3 3-1 .7-2.2 1-3.8 1h-.2Zm27 .1c-1.6 0-3-.3-4.2-1-1.2-.7-2.2-1.7-2.9-3-.7-1.3-1.1-2.9-1.2-4.8h.9v8.2h-3.3v-26.3h4.2v13l-1.3 2.3c0-2.1.5-3.8 1.2-5.1.7-1.3 1.7-2.3 2.9-3 1.2-.6 2.5-1 4-1s2.6.3 3.7.8 2.1 1.2 2.9 2.1c.8.9 1.4 2 1.8 3.2s.6 2.5.6 3.9v.7c0 1.4-.2 2.7-.6 3.9-.4 1.2-1.1 2.3-1.9 3.2-.8.9-1.8 1.7-3 2.2-1.2.5-2.4.8-3.9.8Zm-.8-3.6c1.2 0 2.2-.3 3.1-.9.9-.6 1.6-1.4 2.1-2.4s.7-2.2.7-3.5-.3-2.5-.8-3.5-1.2-1.8-2.1-2.3c-.9-.6-1.9-.8-3.1-.8s-2 .2-3 .7c-.9.5-1.6 1.2-2.2 2.1-.6.9-.8 2-.8 3.3v1.5c0 1.2.3 2.3.8 3.2s1.3 1.5 2.2 2 1.9.7 2.9.7Zm15 3v-19.4h3.3v8.3h-.4c0-1.9.3-3.5.8-4.9.5-1.3 1.3-2.3 2.4-3 1.1-.7 2.4-1 3.9-1h.2c2.4 0 4.2.8 5.4 2.3 1.2 1.5 1.8 3.7 1.8 6.6v11.1h-4.2v-11.7c0-1.3-.4-2.4-1.2-3.3-.8-.8-1.8-1.2-3.2-1.2s-2.5.4-3.3 1.3c-.8.9-1.3 2-1.3 3.4v11.5h-4.2Zm31.6.6c-1.7 0-3.1-.3-4.4-.9s-2.3-1.3-3.1-2.3c-.8-.9-1.4-2-1.8-3.2-.4-1.2-.6-2.4-.6-3.7v-.7c0-1.3.2-2.5.6-3.7.4-1.2 1-2.3 1.8-3.2.8-.9 1.8-1.7 3-2.3 1.2-.6 2.6-.8 4.2-.8s3.8.5 5.2 1.4 2.4 2.1 3.1 3.5c.7 1.5 1 3 1 4.7v1.7h-17.2v-2.8h14.4l-1.2 1.4c0-1.3-.2-2.4-.6-3.4s-1-1.7-1.8-2.2c-.8-.5-1.8-.8-3-.8s-2.3.3-3.1.9c-.8.6-1.5 1.4-1.9 2.4s-.6 2.2-.6 3.6.2 2.5.6 3.5c.4 1 1 1.8 1.9 2.4s2 .9 3.3.9 2.4-.3 3.3-.9 1.4-1.3 1.6-2.1h3.9c-.3 1.3-.8 2.5-1.6 3.5s-1.8 1.7-3 2.3c-1.2.5-2.6.8-4.2.8Zm11.1-16.9v-3.1h13.5v3.1h-13.5Zm10.6 16.5c-1.6 0-3-.2-4.1-.6-1.1-.4-1.9-1.2-2.5-2.2-.6-1.1-.8-2.5-.8-4.3v-18.1h4v18.5c0 1 .3 1.8.8 2.3s1.3.8 2.3.8h3.2v3.7h-2.9Z"></path><path d="M1880 1868.7c-2.4 0-4.4-.4-6.1-1.2-1.7-.8-3.1-1.9-4.1-3.3-1-1.4-1.8-2.8-2.3-4.4-.5-1.6-.7-3.1-.7-4.6v-.8c0-1.6.3-3.2.8-4.8.5-1.6 1.3-3 2.3-4.3s2.4-2.3 4.1-3.1 3.6-1.2 5.9-1.2 4.4.4 6.2 1.3c1.7.8 3.1 2 4.1 3.5s1.6 3.3 1.8 5.3h-4.4c-.2-1.3-.6-2.5-1.3-3.4-.7-.9-1.6-1.6-2.7-2-1.1-.5-2.3-.7-3.7-.7s-2.7.3-3.8.8-2 1.2-2.7 2.1c-.7.9-1.3 1.9-1.6 3.1-.4 1.2-.6 2.5-.6 3.9s.2 2.6.6 3.8c.4 1.2.9 2.2 1.7 3.2.7.9 1.7 1.6 2.8 2.1 1.1.5 2.4.8 3.9.8 2.1 0 3.9-.5 5.3-1.6 1.4-1 2.3-2.5 2.6-4.5h4.4c-.2 1.8-.9 3.5-1.9 5.1-1 1.5-2.4 2.7-4.1 3.6-1.8.9-3.9 1.4-6.3 1.4Zm17-.5v-26.6h4.3v26.6h-4.3Zm3.6-12.4v-2.7h6c1.4 0 2.4-.4 3-1.1.6-.7 1-1.7 1-2.8s-.3-2.1-1-2.9c-.6-.7-1.6-1.1-3-1.1h-6v-3.6h5.4c2.9 0 5.1.6 6.6 1.9 1.5 1.2 2.2 3 2.2 5.3v.5c0 1.6-.4 2.9-1.1 3.9-.8 1-1.8 1.6-3.1 2-1.3.4-2.9.6-4.6.6h-5.4Zm0 12.4v-3.6h6.9c1.3 0 2.3-.4 3-1.1s1.1-1.7 1.1-3-.3-2.3-1-3c-.7-.7-1.7-1.1-3-1.1h-6.9v-2.7h6.5c1.7 0 3.3.2 4.6.6s2.4 1.1 3.1 2.1c.8 1 1.2 2.3 1.2 3.9v.5c0 1.5-.3 2.9-1 3.9s-1.6 1.9-3 2.5c-1.3.6-2.9.8-4.9.8h-6.5Zm21.1 0v-26.6h4.3v26.6h-4.3Zm3.6 0v-4h6c1.5 0 2.8-.2 3.9-.7 1.2-.5 2.1-1.1 3-2 .8-.8 1.4-1.8 1.9-3 .4-1.1.6-2.4.6-3.7s-.2-2.7-.6-3.8c-.4-1.1-1-2.1-1.9-2.9s-1.8-1.4-3-1.9c-1.2-.4-2.5-.7-3.9-.7h-6v-4h5.7c2.4 0 4.4.4 6.2 1.1 1.8.7 3.2 1.7 4.4 2.9 1.2 1.2 2.1 2.6 2.6 4.1.6 1.5.9 3.1.9 4.8v.8c0 1.5-.3 3.1-.9 4.6-.6 1.5-1.5 2.9-2.6 4.2-1.2 1.2-2.6 2.2-4.4 3-1.8.8-3.8 1.1-6.2 1.1h-5.7Zm36.4.5c-2.4 0-4.4-.4-6.1-1.2-1.7-.8-3.1-1.9-4.1-3.3-1-1.4-1.8-2.8-2.3-4.4-.5-1.6-.7-3.1-.7-4.6v-.8c0-1.6.3-3.2.8-4.8.5-1.6 1.3-3 2.3-4.3s2.4-2.3 4.1-3.1 3.6-1.2 5.9-1.2 4.4.4 6.2 1.3c1.7.8 3.1 2 4.1 3.5s1.6 3.3 1.8 5.3h-4.4c-.2-1.3-.6-2.5-1.3-3.4-.7-.9-1.6-1.6-2.7-2-1.1-.5-2.3-.7-3.7-.7s-2.7.3-3.8.8-2 1.2-2.7 2.1c-.7.9-1.3 1.9-1.6 3.1-.4 1.2-.6 2.5-.6 3.9s.2 2.6.6 3.8c.4 1.2.9 2.2 1.7 3.2.7.9 1.7 1.6 2.8 2.1 1.1.5 2.4.8 3.9.8 2.1 0 3.9-.5 5.3-1.6 1.4-1 2.3-2.5 2.6-4.5h4.4c-.2 1.8-.9 3.5-1.9 5.1-1 1.5-2.4 2.7-4.1 3.6-1.8.9-3.9 1.4-6.3 1.4Zm-82.8 20.1v-3.8h19.9v3.8h-19.9Zm7.8 22.5v-23.2h4.3v23.2h-4.3Zm12.7 0 6.6-10.3v.8c-.1 0-6.3-9.9-6.3-9.9h4.6l4.3 7.1h.5l4-7.1h4.3l-5.9 9.8v-.7c.1 0 7.1 10.3 7.1 10.3h-4.6l-5-7.6h-.5l-4.8 7.6h-4.3Zm22.9 0v-19.4h3.3v8.3h-.4c0-1.9.3-3.5.8-4.9.5-1.3 1.3-2.3 2.4-3 1.1-.7 2.4-1 3.9-1h.2c2.4 0 4.2.8 5.4 2.3 1.2 1.5 1.8 3.7 1.8 6.6v11.1h-4.2v-11.7c0-1.3-.4-2.4-1.2-3.3-.8-.8-1.8-1.2-3.2-1.2s-2.5.4-3.3 1.3c-.8.9-1.3 2-1.3 3.4v11.5h-4.2Zm29.9.5c-2.6 0-4.7-.6-6.1-1.7-1.5-1.1-2.2-2.6-2.3-4.6h3.9c0 .7.4 1.4 1.1 2 .7.6 1.8.9 3.4.9s2.4-.3 3.2-.8c.8-.5 1.2-1.2 1.2-2s-.3-1.3-.8-1.7-1.5-.7-2.9-.8l-1.9-.2c-2-.2-3.6-.8-4.7-1.8s-1.7-2.3-1.7-3.9.3-2.4 1-3.3c.6-.9 1.5-1.6 2.7-2.1 1.1-.5 2.5-.7 3.9-.7 2.3 0 4.2.5 5.6 1.5 1.4 1 2.1 2.5 2.2 4.5h-3.9c0-.7-.4-1.4-1-1.9s-1.6-.8-2.9-.8-2.1.2-2.8.7c-.6.5-1 1.1-1 1.8s.2 1.2.7 1.6c.5.4 1.3.6 2.3.8l1.9.2c2.2.2 3.9.8 5.2 1.8 1.3 1 1.9 2.3 1.9 4s-.3 2.3-1 3.3c-.7.9-1.7 1.7-2.9 2.2s-2.7.8-4.3.8Z" class="st12"></path><path d="M2623.4 1028.9v-26.5h4.3v26.5h-4.3Zm3.6-8.6v-3.8h5.5c1.2 0 2.1-.2 2.9-.7s1.3-1.1 1.7-1.8.6-1.7.6-2.6-.2-1.9-.6-2.7c-.4-.8-1-1.4-1.7-1.8-.8-.4-1.7-.6-2.9-.6h-5.5v-3.8h5c2.2 0 4 .4 5.5 1.1 1.5.7 2.6 1.7 3.4 3 .8 1.3 1.2 2.8 1.2 4.6v.6c0 1.8-.4 3.3-1.2 4.6-.8 1.3-1.9 2.3-3.4 3s-3.3 1.1-5.5 1.1h-5Zm19.5 8.6v-19.4h3.3v8.1h-.1c0-2.8.6-4.9 1.8-6.2 1.2-1.4 3-2.1 5.4-2.1h.7v3.7h-1.3c-1.8 0-3.2.5-4.2 1.5s-1.5 2.4-1.5 4.2v10.3h-4.2Zm13-16.2v-3.2h7.1v3.2h-7.1Zm4.2-5.9c-.9 0-1.5-.2-1.9-.7-.4-.5-.6-1-.6-1.8s.2-1.3.6-1.7 1.1-.7 1.9-.7 1.5.2 2 .7c.4.5.6 1 .6 1.7s-.2 1.3-.6 1.8c-.4.5-1.1.7-2 .7Zm-1.4 22.1v-19.4h4.2v19.4h-4.2Zm14.5 0-6.3-19.4h4.4l6.1 19.4h-4.2Zm1.2 0v-3.4h4.7v3.4h-4.7Zm1.8 0 5.3-19.4h4.1l-5.5 19.4h-3.9Zm18.8.5c-1.4 0-2.7-.2-3.7-.7-1.1-.5-1.9-1.2-2.4-2.2s-.9-2.1-.9-3.4.3-2.5 1-3.5 1.6-1.6 2.8-2.1 2.7-.7 4.4-.7h4.9v2.8h-5c-1.3 0-2.2.3-2.9.9s-1 1.4-1 2.4.3 1.8 1 2.4 1.6.9 2.9.9 1.5-.1 2.1-.4c.7-.3 1.2-.7 1.7-1.4.4-.6.7-1.6.7-2.7l1.1 1.4c-.1 1.4-.5 2.5-1 3.4-.5.9-1.3 1.6-2.2 2.1-.9.5-2.1.7-3.5.7Zm6.3-.5v-5.8h-.7v-6.6c0-1.2-.3-2.1-.9-2.7s-1.5-.9-2.8-.9h-4.6c-.8 0-1.5 0-2.1.1v-3.6c.5 0 1.1 0 1.7-.1h4c2 0 3.6.3 4.9.8s2.3 1.3 2.9 2.4c.6 1.1 1 2.5 1 4.4v12.1h-3.3Zm6.6-16.3v-3.1h13.5v3.1h-13.5Zm10.6 16.5c-1.6 0-3-.2-4.1-.6-1.1-.4-1.9-1.2-2.5-2.2-.6-1.1-.8-2.5-.8-4.3v-18.1h4v18.5c0 1 .3 1.8.8 2.3s1.3.8 2.3.8h3.2v3.7h-2.9Zm15.8.4c-1.7 0-3.1-.3-4.4-.9s-2.3-1.3-3.1-2.3c-.8-.9-1.4-2-1.8-3.2-.4-1.2-.6-2.4-.6-3.7v-.7c0-1.3.2-2.5.6-3.7.4-1.2 1-2.3 1.8-3.2.8-.9 1.8-1.7 3-2.3 1.2-.6 2.6-.8 4.2-.8s3.8.5 5.2 1.4 2.4 2.1 3.1 3.5c.7 1.5 1 3 1 4.7v1.7h-17.2v-2.8h14.4l-1.2 1.4c0-1.3-.2-2.4-.6-3.4s-1-1.7-1.8-2.2c-.8-.5-1.8-.8-3-.8s-2.3.3-3.1.9c-.8.6-1.5 1.4-1.9 2.4s-.6 2.2-.6 3.6.2 2.5.6 3.5c.4 1 1 1.8 1.9 2.4s2 .9 3.3.9 2.4-.3 3.3-.9 1.4-1.3 1.6-2.1h3.9c-.3 1.3-.8 2.5-1.6 3.5s-1.8 1.7-3 2.3c-1.2.5-2.6.8-4.2.8Zm-108 43.2c-2.3 0-4.2-.4-5.7-1.1-1.6-.7-2.8-1.7-3.6-3-.8-1.3-1.2-2.7-1.2-4.4h4.2c0 .7.2 1.5.6 2.2.4.7 1.1 1.3 2 1.8.9.5 2.1.7 3.7.7s2.6-.2 3.5-.6c.9-.4 1.6-.9 2.1-1.6.4-.7.7-1.4.7-2.2s-.4-1.8-1.3-2.5-2.2-1-3.9-1.2l-2.6-.3c-2.4-.2-4.4-.9-5.8-2.2-1.4-1.3-2.2-3-2.2-5.2s.4-3 1.2-4.2c.8-1.2 1.9-2.1 3.3-2.8 1.4-.7 3.1-1 4.9-1s3.6.3 5 1 2.5 1.6 3.3 2.9 1.2 2.7 1.2 4.4h-4.2c0-.8-.2-1.5-.6-2.2-.4-.7-.9-1.2-1.7-1.7-.8-.4-1.8-.6-3-.6s-2.1.2-2.9.6c-.8.4-1.3.9-1.7 1.6-.4.6-.6 1.3-.6 2.1s.3 1.7 1 2.4 1.7 1.1 3.1 1.2l2.6.2c1.8.1 3.5.5 4.8 1.2 1.4.6 2.4 1.5 3.2 2.5.8 1.1 1.1 2.3 1.1 3.8s-.4 3.1-1.3 4.3-2.1 2.2-3.7 2.9c-1.6.7-3.4 1-5.5 1Zm22.1-.1c-2.3 0-4-.7-5.3-2.2-1.2-1.5-1.8-3.7-1.8-6.5v-11.2h4.2v11.8c0 1.3.4 2.4 1.1 3.2.7.8 1.8 1.2 3 1.2s2.4-.4 3.2-1.2c.8-.8 1.2-2 1.2-3.4v-11.5h4.2v19.4h-3.3v-8.3h.4c0 1.9-.3 3.6-.8 4.9-.5 1.3-1.3 2.3-2.3 3-1 .7-2.2 1-3.8 1h-.2Zm26.9.1c-1.6 0-3-.3-4.2-1-1.2-.7-2.2-1.7-2.9-3-.7-1.3-1.1-2.9-1.2-4.8h.9v8.2h-3.3v-26.3h4.2v13l-1.3 2.3c0-2.1.5-3.8 1.2-5.1.7-1.3 1.7-2.3 2.9-3 1.2-.6 2.5-1 4-1s2.6.3 3.7.8 2.1 1.2 2.9 2.1c.8.9 1.4 2 1.8 3.2s.6 2.5.6 3.9v.7c0 1.4-.2 2.7-.6 3.9-.4 1.2-1.1 2.3-1.9 3.2-.8.9-1.8 1.7-3 2.2-1.2.5-2.4.8-3.9.8Zm-.7-3.6c1.2 0 2.2-.3 3.1-.9.9-.6 1.6-1.4 2.1-2.4s.7-2.2.7-3.5-.3-2.5-.8-3.5-1.2-1.8-2.1-2.3c-.9-.6-1.9-.8-3.1-.8s-2 .2-3 .7c-.9.5-1.6 1.2-2.2 2.1-.6.9-.8 2-.8 3.3v1.5c0 1.2.3 2.3.8 3.2s1.3 1.5 2.2 2 1.9.7 2.9.7Zm14.9 3v-19.4h3.3v8.3h-.4c0-1.9.3-3.5.8-4.9.5-1.3 1.3-2.3 2.4-3 1.1-.7 2.4-1 3.9-1h.2c2.4 0 4.2.8 5.4 2.3 1.2 1.5 1.8 3.7 1.8 6.6v11.1h-4.2v-11.7c0-1.3-.4-2.4-1.2-3.3-.8-.8-1.8-1.2-3.2-1.2s-2.5.4-3.3 1.3c-.8.9-1.3 2-1.3 3.4v11.5h-4.2Zm31.6.6c-1.7 0-3.1-.3-4.4-.9s-2.3-1.3-3.1-2.3c-.8-.9-1.4-2-1.8-3.2-.4-1.2-.6-2.4-.6-3.7v-.7c0-1.3.2-2.5.6-3.7.4-1.2 1-2.3 1.8-3.2.8-.9 1.8-1.7 3-2.3 1.2-.6 2.6-.8 4.2-.8s3.8.5 5.2 1.4 2.4 2.1 3.1 3.5c.7 1.5 1 3 1 4.7v1.7h-17.2v-2.8h14.4l-1.2 1.4c0-1.3-.2-2.4-.6-3.4s-1-1.7-1.8-2.2c-.8-.5-1.8-.8-3-.8s-2.3.3-3.1.9c-.8.6-1.5 1.4-1.9 2.4s-.6 2.2-.6 3.6.2 2.5.6 3.5c.4 1 1 1.8 1.9 2.4s2 .9 3.3.9 2.4-.3 3.3-.9 1.4-1.3 1.6-2.1h3.9c-.3 1.3-.8 2.5-1.6 3.5s-1.8 1.7-3 2.3c-1.2.5-2.6.8-4.2.8Zm11.1-16.9v-3.1h13.5v3.1h-13.5Zm10.6 16.5c-1.6 0-3-.2-4.1-.6-1.1-.4-1.9-1.2-2.5-2.2-.6-1.1-.8-2.5-.8-4.3v-18.1h4v18.5c0 1 .3 1.8.8 2.3s1.3.8 2.3.8h3.2v3.7h-2.9Z"></path><path d="M2644.2 1115.9c-2.4 0-4.4-.4-6.1-1.2-1.7-.8-3.1-1.9-4.1-3.3s-1.8-2.8-2.3-4.4c-.5-1.6-.7-3.1-.7-4.6v-.8c0-1.6.3-3.2.8-4.8.5-1.6 1.3-3 2.3-4.3 1-1.3 2.4-2.3 4.1-3.1 1.7-.8 3.6-1.2 5.9-1.2s4.4.4 6.2 1.3c1.7.8 3.1 2 4.1 3.5s1.6 3.3 1.8 5.3h-4.4c-.2-1.3-.6-2.5-1.3-3.4-.7-.9-1.6-1.6-2.7-2-1.1-.5-2.3-.7-3.7-.7s-2.7.3-3.8.8-2 1.2-2.7 2.1-1.3 1.9-1.6 3.1c-.4 1.2-.6 2.5-.6 3.9s.2 2.6.6 3.8c.4 1.2.9 2.2 1.7 3.2.7.9 1.7 1.6 2.8 2.1s2.4.8 3.9.8c2.1 0 3.9-.5 5.3-1.6 1.4-1 2.3-2.5 2.6-4.5h4.4c-.2 1.8-.9 3.5-1.9 5.1-1 1.5-2.4 2.7-4.1 3.6-1.8.9-3.9 1.3-6.3 1.3Zm17.1-.5v-26.6h4.3v26.6h-4.3Zm3.5-12.4v-2.7h6c1.4 0 2.4-.4 3-1.1.6-.7 1-1.7 1-2.8s-.3-2.1-1-2.9c-.6-.7-1.6-1.1-3-1.1h-6v-3.6h5.4c2.9 0 5.1.6 6.6 1.9 1.5 1.2 2.2 3 2.2 5.3v.5c0 1.6-.4 2.9-1.1 3.9-.8 1-1.8 1.6-3.1 2s-2.9.6-4.6.6h-5.4Zm0 12.4v-3.6h6.9c1.3 0 2.3-.4 3-1.1.7-.7 1.1-1.7 1.1-3s-.3-2.3-1-3c-.7-.7-1.7-1.1-3-1.1h-6.9v-2.7h6.5c1.7 0 3.3.2 4.6.6s2.4 1.1 3.1 2.1c.8 1 1.2 2.3 1.2 3.9v.5c0 1.5-.3 2.8-1 3.9s-1.6 1.9-3 2.5c-1.3.6-2.9.8-4.9.8h-6.5Zm21.1 0v-26.6h4.3v26.6h-4.3Zm3.6 0v-4h6c1.5 0 2.8-.2 3.9-.7 1.2-.5 2.1-1.1 3-2 .8-.8 1.4-1.8 1.9-3 .4-1.1.6-2.4.6-3.7s-.2-2.7-.6-3.8c-.4-1.1-1-2.1-1.9-2.9-.8-.8-1.8-1.4-3-1.9-1.2-.4-2.5-.7-3.9-.7h-6v-4h5.7c2.4 0 4.4.4 6.2 1.1 1.8.7 3.2 1.7 4.4 2.9 1.2 1.2 2.1 2.6 2.6 4.1.6 1.5.9 3.1.9 4.8v.8c0 1.5-.3 3.1-.9 4.6-.6 1.5-1.5 2.9-2.6 4.2-1.2 1.2-2.6 2.2-4.4 3-1.8.8-3.8 1.1-6.2 1.1h-5.7Zm36.4.5c-2.4 0-4.4-.4-6.1-1.2-1.7-.8-3.1-1.9-4.1-3.3s-1.8-2.8-2.3-4.4c-.5-1.6-.7-3.1-.7-4.6v-.8c0-1.6.3-3.2.8-4.8.5-1.6 1.3-3 2.3-4.3 1-1.3 2.4-2.3 4.1-3.1 1.7-.8 3.6-1.2 5.9-1.2s4.4.4 6.2 1.3c1.7.8 3.1 2 4.1 3.5s1.6 3.3 1.8 5.3h-4.4c-.2-1.3-.6-2.5-1.3-3.4-.7-.9-1.6-1.6-2.7-2-1.1-.5-2.3-.7-3.7-.7s-2.7.3-3.8.8-2 1.2-2.7 2.1-1.3 1.9-1.6 3.1c-.4 1.2-.6 2.5-.6 3.9s.2 2.6.6 3.8c.4 1.2.9 2.2 1.7 3.2.7.9 1.7 1.6 2.8 2.1s2.4.8 3.9.8c2.1 0 3.9-.5 5.3-1.6 1.4-1 2.3-2.5 2.6-4.5h4.4c-.2 1.8-.9 3.5-1.9 5.1-1 1.5-2.4 2.7-4.1 3.6-1.8.9-3.9 1.3-6.3 1.3Zm-82.7 20.1v-3.8h19.9v3.8h-19.9Zm7.7 22.5v-23.2h4.3v23.2h-4.3Zm12.7 0 6.6-10.3v.8c-.1 0-6.3-9.9-6.3-9.9h4.6l4.3 7.1h.5l4-7.1h4.3l-5.9 9.8v-.7c.1 0 7.1 10.3 7.1 10.3h-4.6l-5-7.6h-.5l-4.8 7.6h-4.3Zm23 0v-19.4h3.3v8.3h-.4c0-1.9.3-3.5.8-4.9.5-1.3 1.3-2.3 2.4-3s2.4-1 3.9-1h.2c2.4 0 4.2.8 5.4 2.3 1.2 1.5 1.8 3.7 1.8 6.6v11.1h-4.2v-11.7c0-1.3-.4-2.4-1.2-3.3-.8-.8-1.8-1.2-3.2-1.2s-2.5.4-3.3 1.3c-.8.9-1.3 2-1.3 3.4v11.5h-4.2Zm29.8.5c-2.6 0-4.7-.6-6.1-1.7-1.5-1.1-2.2-2.6-2.3-4.6h3.9c0 .7.4 1.4 1.1 2 .7.6 1.8.9 3.4.9s2.4-.3 3.2-.8c.8-.5 1.2-1.2 1.2-2s-.3-1.3-.8-1.7-1.5-.7-2.9-.8l-1.9-.2c-2-.2-3.6-.8-4.7-1.8-1.2-1-1.7-2.3-1.7-3.9s.3-2.4 1-3.3c.6-.9 1.5-1.6 2.7-2.1 1.1-.5 2.5-.7 3.9-.7 2.3 0 4.2.5 5.6 1.5s2.1 2.5 2.2 4.5h-3.9c0-.7-.4-1.4-1-1.9s-1.6-.8-2.9-.8-2.1.2-2.8.7-1 1.1-1 1.8.2 1.2.7 1.6c.5.4 1.3.6 2.3.8l1.9.2c2.2.2 3.9.8 5.2 1.8 1.3 1 1.9 2.3 1.9 4s-.3 2.3-1 3.3c-.7.9-1.7 1.7-2.9 2.2s-2.7.8-4.3.8Z" class="st12"></path><path d="M1097.4 1028.9v-26.5h4.3v26.5h-4.3Zm3.6-8.6v-3.8h5.5c1.2 0 2.1-.2 2.9-.7s1.3-1.1 1.7-1.8.6-1.7.6-2.6-.2-1.9-.6-2.7c-.4-.8-1-1.4-1.7-1.8-.8-.4-1.7-.6-2.9-.6h-5.5v-3.8h5c2.2 0 4 .4 5.5 1.1 1.5.7 2.6 1.7 3.4 3 .8 1.3 1.2 2.8 1.2 4.6v.6c0 1.8-.4 3.3-1.2 4.6-.8 1.3-1.9 2.3-3.4 3s-3.3 1.1-5.5 1.1h-5Zm19.4 8.6v-19.4h3.3v8.1h-.1c0-2.8.6-4.9 1.8-6.2 1.2-1.4 3-2.1 5.4-2.1h.7v3.7h-1.3c-1.8 0-3.2.5-4.2 1.5s-1.5 2.4-1.5 4.2v10.3h-4.2Zm13-16.2v-3.2h7.1v3.2h-7.1Zm4.3-5.9c-.9 0-1.5-.2-1.9-.7-.4-.5-.6-1-.6-1.8s.2-1.3.6-1.7 1.1-.7 1.9-.7 1.5.2 2 .7c.4.5.6 1 .6 1.7s-.2 1.3-.6 1.8c-.4.5-1.1.7-2 .7Zm-1.4 22.1v-19.4h4.2v19.4h-4.2Zm14.5 0-6.3-19.4h4.4l6.1 19.4h-4.2Zm1.2 0v-3.4h4.7v3.4h-4.7Zm1.8 0 5.3-19.4h4.1l-5.5 19.4h-3.9Zm18.8.5c-1.4 0-2.7-.2-3.7-.7-1.1-.5-1.9-1.2-2.4-2.2s-.9-2.1-.9-3.4.3-2.5 1-3.5 1.6-1.6 2.8-2.1 2.7-.7 4.4-.7h4.9v2.8h-5c-1.3 0-2.2.3-2.9.9s-1 1.4-1 2.4.3 1.8 1 2.4 1.6.9 2.9.9 1.5-.1 2.1-.4c.7-.3 1.2-.7 1.7-1.4.4-.6.7-1.6.7-2.7l1.1 1.4c-.1 1.4-.5 2.5-1 3.4-.5.9-1.3 1.6-2.2 2.1-.9.5-2.1.7-3.5.7Zm6.3-.5v-5.8h-.7v-6.6c0-1.2-.3-2.1-.9-2.7s-1.5-.9-2.8-.9h-4.6c-.8 0-1.5 0-2.1.1v-3.6c.5 0 1.1 0 1.7-.1h4c2 0 3.6.3 4.9.8s2.3 1.3 2.9 2.4c.6 1.1 1 2.5 1 4.4v12.1h-3.3Zm6.5-16.3v-3.1h13.5v3.1h-13.5Zm10.6 16.5c-1.6 0-3-.2-4.1-.6-1.1-.4-1.9-1.2-2.5-2.2-.6-1.1-.8-2.5-.8-4.3v-18.1h4v18.5c0 1 .3 1.8.8 2.3s1.3.8 2.3.8h3.2v3.7h-2.9Zm15.9.4c-1.7 0-3.1-.3-4.4-.9s-2.3-1.3-3.1-2.3c-.8-.9-1.4-2-1.8-3.2-.4-1.2-.6-2.4-.6-3.7v-.7c0-1.3.2-2.5.6-3.7.4-1.2 1-2.3 1.8-3.2.8-.9 1.8-1.7 3-2.3 1.2-.6 2.6-.8 4.2-.8s3.8.5 5.2 1.4 2.4 2.1 3.1 3.5c.7 1.5 1 3 1 4.7v1.7h-17.2v-2.8h14.4l-1.2 1.4c0-1.3-.2-2.4-.6-3.4s-1-1.7-1.8-2.2c-.8-.5-1.8-.8-3-.8s-2.3.3-3.1.9c-.8.6-1.5 1.4-1.9 2.4s-.6 2.2-.6 3.6.2 2.5.6 3.5c.4 1 1 1.8 1.9 2.4s2 .9 3.3.9 2.4-.3 3.3-.9 1.4-1.3 1.6-2.1h3.9c-.3 1.3-.8 2.5-1.6 3.5s-1.8 1.7-3 2.3c-1.2.5-2.6.8-4.2.8Zm-108 43.2c-2.3 0-4.2-.4-5.7-1.1-1.6-.7-2.8-1.7-3.6-3-.8-1.3-1.2-2.7-1.2-4.4h4.2c0 .7.2 1.5.6 2.2.4.7 1.1 1.3 2 1.8.9.5 2.1.7 3.7.7s2.6-.2 3.5-.6c.9-.4 1.6-.9 2.1-1.6.4-.7.7-1.4.7-2.2s-.4-1.8-1.3-2.5-2.2-1-3.9-1.2l-2.6-.3c-2.4-.2-4.4-.9-5.8-2.2-1.4-1.3-2.2-3-2.2-5.2s.4-3 1.2-4.2c.8-1.2 1.9-2.1 3.3-2.8 1.4-.7 3.1-1 4.9-1s3.6.3 5 1 2.5 1.6 3.3 2.9 1.2 2.7 1.2 4.4h-4.2c0-.8-.2-1.5-.6-2.2-.4-.7-.9-1.2-1.7-1.7-.8-.4-1.8-.6-3-.6s-2.1.2-2.9.6c-.8.4-1.3.9-1.7 1.6-.4.6-.6 1.3-.6 2.1s.3 1.7 1 2.4 1.7 1.1 3.1 1.2l2.6.2c1.8.1 3.5.5 4.8 1.2 1.4.6 2.4 1.5 3.2 2.5.8 1.1 1.1 2.3 1.1 3.8s-.4 3.1-1.3 4.3-2.1 2.2-3.7 2.9c-1.6.7-3.4 1-5.5 1Zm22-.1c-2.3 0-4-.7-5.3-2.2-1.2-1.5-1.8-3.7-1.8-6.5v-11.2h4.2v11.8c0 1.3.4 2.4 1.1 3.2.7.8 1.8 1.2 3 1.2s2.4-.4 3.2-1.2c.8-.8 1.2-2 1.2-3.4v-11.5h4.2v19.4h-3.3v-8.3h.4c0 1.9-.3 3.6-.8 4.9-.5 1.3-1.3 2.3-2.3 3-1 .7-2.2 1-3.8 1h-.2Zm27 .1c-1.6 0-3-.3-4.2-1-1.2-.7-2.2-1.7-2.9-3-.7-1.3-1.1-2.9-1.2-4.8h.9v8.2h-3.3v-26.3h4.2v13l-1.3 2.3c0-2.1.5-3.8 1.2-5.1.7-1.3 1.7-2.3 2.9-3 1.2-.6 2.5-1 4-1s2.6.3 3.7.8 2.1 1.2 2.9 2.1c.8.9 1.4 2 1.8 3.2s.6 2.5.6 3.9v.7c0 1.4-.2 2.7-.6 3.9-.4 1.2-1.1 2.3-1.9 3.2-.8.9-1.8 1.7-3 2.2-1.2.5-2.4.8-3.9.8Zm-.8-3.6c1.2 0 2.2-.3 3.1-.9.9-.6 1.6-1.4 2.1-2.4s.7-2.2.7-3.5-.3-2.5-.8-3.5-1.2-1.8-2.1-2.3c-.9-.6-1.9-.8-3.1-.8s-2 .2-3 .7c-.9.5-1.6 1.2-2.2 2.1-.6.9-.8 2-.8 3.3v1.5c0 1.2.3 2.3.8 3.2s1.3 1.5 2.2 2 1.9.7 2.9.7Zm15 3v-19.4h3.3v8.3h-.4c0-1.9.3-3.5.8-4.9.5-1.3 1.3-2.3 2.4-3 1.1-.7 2.4-1 3.9-1h.2c2.4 0 4.2.8 5.4 2.3 1.2 1.5 1.8 3.7 1.8 6.6v11.1h-4.2v-11.7c0-1.3-.4-2.4-1.2-3.3-.8-.8-1.8-1.2-3.2-1.2s-2.5.4-3.3 1.3c-.8.9-1.3 2-1.3 3.4v11.5h-4.2Zm31.6.6c-1.7 0-3.1-.3-4.4-.9s-2.3-1.3-3.1-2.3c-.8-.9-1.4-2-1.8-3.2-.4-1.2-.6-2.4-.6-3.7v-.7c0-1.3.2-2.5.6-3.7.4-1.2 1-2.3 1.8-3.2.8-.9 1.8-1.7 3-2.3 1.2-.6 2.6-.8 4.2-.8s3.8.5 5.2 1.4 2.4 2.1 3.1 3.5c.7 1.5 1 3 1 4.7v1.7h-17.2v-2.8h14.4l-1.2 1.4c0-1.3-.2-2.4-.6-3.4s-1-1.7-1.8-2.2c-.8-.5-1.8-.8-3-.8s-2.3.3-3.1.9c-.8.6-1.5 1.4-1.9 2.4s-.6 2.2-.6 3.6.2 2.5.6 3.5c.4 1 1 1.8 1.9 2.4s2 .9 3.3.9 2.4-.3 3.3-.9 1.4-1.3 1.6-2.1h3.9c-.3 1.3-.8 2.5-1.6 3.5s-1.8 1.7-3 2.3c-1.2.5-2.6.8-4.2.8Zm11.1-16.9v-3.1h13.5v3.1h-13.5Zm10.6 16.5c-1.6 0-3-.2-4.1-.6-1.1-.4-1.9-1.2-2.5-2.2-.6-1.1-.8-2.5-.8-4.3v-18.1h4v18.5c0 1 .3 1.8.8 2.3s1.3.8 2.3.8h3.2v3.7h-2.9Z"></path><path d="M1118.2 1115.9c-2.4 0-4.4-.4-6.1-1.2-1.7-.8-3.1-1.9-4.1-3.3s-1.8-2.8-2.3-4.4c-.5-1.6-.7-3.1-.7-4.6v-.8c0-1.6.3-3.2.8-4.8.5-1.6 1.3-3 2.3-4.3 1-1.3 2.4-2.3 4.1-3.1 1.7-.8 3.6-1.2 5.9-1.2s4.4.4 6.2 1.3c1.7.8 3.1 2 4.1 3.5s1.6 3.3 1.8 5.3h-4.4c-.2-1.3-.6-2.5-1.3-3.4-.7-.9-1.6-1.6-2.7-2-1.1-.5-2.3-.7-3.7-.7s-2.7.3-3.8.8-2 1.2-2.7 2.1-1.3 1.9-1.6 3.1c-.4 1.2-.6 2.5-.6 3.9s.2 2.6.6 3.8c.4 1.2.9 2.2 1.7 3.2.7.9 1.7 1.6 2.8 2.1s2.4.8 3.9.8c2.1 0 3.9-.5 5.3-1.6 1.4-1 2.3-2.5 2.6-4.5h4.4c-.2 1.8-.9 3.5-1.9 5.1-1 1.5-2.4 2.7-4.1 3.6-1.8.9-3.9 1.3-6.3 1.3Zm17-.5v-26.6h4.3v26.6h-4.3Zm3.6-12.4v-2.7h6c1.4 0 2.4-.4 3-1.1.6-.7 1-1.7 1-2.8s-.3-2.1-1-2.9c-.6-.7-1.6-1.1-3-1.1h-6v-3.6h5.4c2.9 0 5.1.6 6.6 1.9 1.5 1.2 2.2 3 2.2 5.3v.5c0 1.6-.4 2.9-1.1 3.9-.8 1-1.8 1.6-3.1 2s-2.9.6-4.6.6h-5.4Zm0 12.4v-3.6h6.9c1.3 0 2.3-.4 3-1.1.7-.7 1.1-1.7 1.1-3s-.3-2.3-1-3c-.7-.7-1.7-1.1-3-1.1h-6.9v-2.7h6.5c1.7 0 3.3.2 4.6.6s2.4 1.1 3.1 2.1c.8 1 1.2 2.3 1.2 3.9v.5c0 1.5-.3 2.8-1 3.9s-1.6 1.9-3 2.5c-1.3.6-2.9.8-4.9.8h-6.5Zm21.1 0v-26.6h4.3v26.6h-4.3Zm3.6 0v-4h6c1.5 0 2.8-.2 3.9-.7 1.2-.5 2.1-1.1 3-2 .8-.8 1.4-1.8 1.9-3 .4-1.1.6-2.4.6-3.7s-.2-2.7-.6-3.8c-.4-1.1-1-2.1-1.9-2.9-.8-.8-1.8-1.4-3-1.9-1.2-.4-2.5-.7-3.9-.7h-6v-4h5.7c2.4 0 4.4.4 6.2 1.1 1.8.7 3.2 1.7 4.4 2.9 1.2 1.2 2.1 2.6 2.6 4.1.6 1.5.9 3.1.9 4.8v.8c0 1.5-.3 3.1-.9 4.6-.6 1.5-1.5 2.9-2.6 4.2-1.2 1.2-2.6 2.2-4.4 3-1.8.8-3.8 1.1-6.2 1.1h-5.7Zm36.3.5c-2.4 0-4.4-.4-6.1-1.2-1.7-.8-3.1-1.9-4.1-3.3s-1.8-2.8-2.3-4.4c-.5-1.6-.7-3.1-.7-4.6v-.8c0-1.6.3-3.2.8-4.8.5-1.6 1.3-3 2.3-4.3 1-1.3 2.4-2.3 4.1-3.1 1.7-.8 3.6-1.2 5.9-1.2s4.4.4 6.2 1.3c1.7.8 3.1 2 4.1 3.5s1.6 3.3 1.8 5.3h-4.4c-.2-1.3-.6-2.5-1.3-3.4-.7-.9-1.6-1.6-2.7-2-1.1-.5-2.3-.7-3.7-.7s-2.7.3-3.8.8-2 1.2-2.7 2.1-1.3 1.9-1.6 3.1c-.4 1.2-.6 2.5-.6 3.9s.2 2.6.6 3.8c.4 1.2.9 2.2 1.7 3.2.7.9 1.7 1.6 2.8 2.1s2.4.8 3.9.8c2.1 0 3.9-.5 5.3-1.6 1.4-1 2.3-2.5 2.6-4.5h4.4c-.2 1.8-.9 3.5-1.9 5.1-1 1.5-2.4 2.7-4.1 3.6-1.8.9-3.9 1.3-6.3 1.3Zm-82.7 20.1v-3.8h19.9v3.8h-19.9Zm7.8 22.5v-23.2h4.3v23.2h-4.3Zm12.7 0 6.6-10.3v.8c-.1 0-6.3-9.9-6.3-9.9h4.6l4.3 7.1h.5l4-7.1h4.3l-5.9 9.8v-.7c.1 0 7.1 10.3 7.1 10.3h-4.6l-5-7.6h-.5l-4.8 7.6h-4.3Zm22.9 0v-19.4h3.3v8.3h-.4c0-1.9.3-3.5.8-4.9.5-1.3 1.3-2.3 2.4-3s2.4-1 3.9-1h.2c2.4 0 4.2.8 5.4 2.3 1.2 1.5 1.8 3.7 1.8 6.6v11.1h-4.2v-11.7c0-1.3-.4-2.4-1.2-3.3-.8-.8-1.8-1.2-3.2-1.2s-2.5.4-3.3 1.3c-.8.9-1.3 2-1.3 3.4v11.5h-4.2Zm29.9.5c-2.6 0-4.7-.6-6.1-1.7-1.5-1.1-2.2-2.6-2.3-4.6h3.9c0 .7.4 1.4 1.1 2 .7.6 1.8.9 3.4.9s2.4-.3 3.2-.8c.8-.5 1.2-1.2 1.2-2s-.3-1.3-.8-1.7-1.5-.7-2.9-.8l-1.9-.2c-2-.2-3.6-.8-4.7-1.8-1.2-1-1.7-2.3-1.7-3.9s.3-2.4 1-3.3c.6-.9 1.5-1.6 2.7-2.1 1.1-.5 2.5-.7 3.9-.7 2.3 0 4.2.5 5.6 1.5s2.1 2.5 2.2 4.5h-3.9c0-.7-.4-1.4-1-1.9s-1.6-.8-2.9-.8-2.1.2-2.8.7-1 1.1-1 1.8.2 1.2.7 1.6c.5.4 1.3.6 2.3.8l1.9.2c2.2.2 3.9.8 5.2 1.8 1.3 1 1.9 2.3 1.9 4s-.3 2.3-1 3.3c-.7.9-1.7 1.7-2.9 2.2s-2.7.8-4.3.8Z" class="st12"></path><path d="M462.9 603.1c-2.4 0-4.4-.4-6.1-1.2-1.7-.8-3.1-1.9-4.3-3.3s-2-2.8-2.5-4.4c-.5-1.6-.8-3.1-.8-4.5v-.8c0-1.6.3-3.2.8-4.8s1.4-3 2.6-4.3c1.1-1.3 2.6-2.4 4.3-3.1s3.7-1.2 6-1.2 4.3.4 6 1.2 3.1 1.8 4.3 3.1c1.2 1.3 2 2.8 2.6 4.3.6 1.6.8 3.2.8 4.8v.8c0 1.4-.3 2.9-.8 4.5-.6 1.6-1.4 3-2.5 4.4-1.1 1.4-2.5 2.5-4.3 3.3s-3.8 1.2-6.1 1.2Zm0-4c1.4 0 2.7-.3 3.9-.8 1.2-.5 2.1-1.2 3-2.2.8-.9 1.4-2 1.9-3.1.4-1.2.6-2.4.6-3.7s-.2-2.7-.6-3.9c-.4-1.2-1-2.2-1.9-3.1-.8-.9-1.8-1.6-2.9-2.1-1.2-.5-2.4-.8-3.9-.8s-2.7.3-3.9.8c-1.2.5-2.1 1.2-3 2.1-.8.9-1.4 1.9-1.9 3.1-.4 1.2-.6 2.5-.6 3.9s.2 2.6.6 3.7 1 2.2 1.9 3.1c.8.9 1.8 1.6 3 2.2 1.2.5 2.4.8 3.9.8Zm18.6 10.5V583h3.3v8.4h-.6c.1-2.1.6-3.8 1.3-5.1s1.7-2.3 3-3c1.2-.6 2.6-1 4-1s2.7.3 3.8.8c1.1.5 2.1 1.2 2.9 2.1.8.9 1.4 2 1.9 3.2s.6 2.5.6 3.9v.7c0 1.4-.2 2.7-.6 3.9-.4 1.2-1.1 2.3-1.9 3.2-.8.9-1.8 1.6-2.9 2.2-1.1.5-2.4.8-3.8.8s-2.7-.3-4-.9-2.2-1.6-3-2.9c-.8-1.3-1.2-3-1.3-5.1l1.6 2.7v12.8h-4.2Zm10.1-10.2c1.2 0 2.2-.3 3.1-.8.9-.6 1.6-1.4 2.1-2.4s.7-2.2.7-3.5-.2-2.5-.7-3.5-1.2-1.8-2.1-2.4c-.9-.6-1.9-.8-3.1-.8s-2 .2-3 .7c-.9.5-1.6 1.2-2.2 2.1-.6.9-.8 2-.8 3.3v1.5c0 1.2.3 2.3.8 3.2s1.3 1.5 2.2 2 1.9.7 2.9.7Zm12.2-13.2v-3.1h13.5v3.1h-13.5Zm10.7 16.4c-1.6 0-3-.2-4.1-.6-1.1-.4-1.9-1.2-2.5-2.2-.6-1.1-.8-2.5-.8-4.3v-18.1h4v18.5c0 1 .3 1.8.8 2.3s1.3.8 2.3.8h3.2v3.7h-2.9Zm5.5-16.3v-3.2h7.1v3.2H520Zm4.3-6c-.9 0-1.5-.2-1.9-.7-.4-.5-.6-1-.6-1.8s.2-1.3.6-1.7 1.1-.7 1.9-.7 1.5.2 2 .7c.4.5.6 1 .6 1.7s-.2 1.3-.6 1.8c-.4.5-1.1.7-2 .7Zm-1.4 22.1V583h4.2v19.4h-4.2Zm19.6.7c-1.7 0-3.2-.3-4.5-.8s-2.4-1.3-3.3-2.2c-.9-.9-1.6-2-2-3.2-.5-1.2-.7-2.4-.7-3.7v-.7c0-1.3.2-2.5.7-3.7.5-1.2 1.2-2.3 2.1-3.2.9-.9 2-1.7 3.3-2.2s2.8-.8 4.4-.8 3.1.3 4.4.8c1.3.6 2.4 1.3 3.3 2.2.9.9 1.6 2 2.1 3.2.5 1.2.7 2.4.7 3.7v.7c0 1.3-.2 2.5-.7 3.7-.5 1.2-1.1 2.2-2 3.2-.9.9-2 1.7-3.3 2.2s-2.8.8-4.5.8Zm0-3.7c1.3 0 2.4-.3 3.4-.9.9-.6 1.7-1.4 2.1-2.4.5-1 .7-2.1.7-3.4s-.3-2.4-.8-3.4-1.2-1.8-2.2-2.4c-.9-.6-2.1-.9-3.3-.9s-2.4.3-3.3.9c-.9.6-1.7 1.4-2.2 2.4-.5 1-.8 2.1-.8 3.4s.2 2.4.7 3.4 1.2 1.8 2.1 2.4c.9.6 2.1.9 3.4.9Zm15.3 3V583h3.3v8.3h-.4c0-1.9.3-3.5.8-4.9.5-1.3 1.3-2.3 2.4-3 1.1-.7 2.4-1 3.9-1h.2c2.4 0 4.2.8 5.4 2.3 1.2 1.5 1.8 3.7 1.8 6.6v11.1H571v-11.7c0-1.3-.4-2.4-1.2-3.3-.8-.8-1.8-1.2-3.2-1.2s-2.5.4-3.3 1.3c-.8.9-1.3 2-1.3 3.4v11.5h-4.2Zm28.6.5c-1.4 0-2.7-.2-3.7-.7-1.1-.5-1.9-1.2-2.4-2.2s-.9-2.1-.9-3.4.3-2.5 1-3.5 1.6-1.6 2.8-2.1 2.7-.7 4.4-.7h4.9v2.8h-5c-1.3 0-2.2.3-2.9.9s-1 1.4-1 2.4.3 1.8 1 2.4 1.6.9 2.9.9 1.5-.1 2.1-.4c.7-.3 1.2-.7 1.7-1.4.4-.6.7-1.6.7-2.7l1.1 1.4c-.1 1.4-.5 2.5-1 3.4-.5.9-1.3 1.6-2.2 2.1-.9.5-2.1.7-3.5.7Zm6.3-.5v-5.8h-.7V590c0-1.2-.3-2.1-.9-2.7s-1.5-.9-2.8-.9h-4.6c-.8 0-1.5 0-2.1.1v-3.6c.5 0 1.1 0 1.7-.1h4c2 0 3.6.3 4.9.8s2.3 1.3 2.9 2.4c.6 1.1 1 2.5 1 4.4v12.1h-3.3Zm6.8-23v-3.2h6.8v3.2h-6.8Zm2.6 23v-26.3h4.2v26.3h-4.2Zm16.2-22.4v-3.8h19.9v3.8h-19.9Zm7.8 22.4v-23.2h4.3v23.2h-4.3Zm15 0V583h3.3v8.1h-.1c0-2.8.6-4.9 1.8-6.2 1.2-1.4 3-2.1 5.4-2.1h.7v3.7h-1.3c-1.8 0-3.2.5-4.2 1.5s-1.5 2.4-1.5 4.2v10.3H641Zm20.2.5c-1.4 0-2.7-.2-3.7-.7-1.1-.5-1.9-1.2-2.4-2.2s-.9-2.1-.9-3.4.3-2.5 1-3.5 1.6-1.6 2.8-2.1 2.7-.7 4.4-.7h4.9v2.8h-5c-1.3 0-2.2.3-2.9.9s-1 1.4-1 2.4.3 1.8 1 2.4 1.6.9 2.9.9 1.5-.1 2.1-.4c.7-.3 1.2-.7 1.7-1.4.4-.6.7-1.6.7-2.7l1.1 1.4c-.1 1.4-.5 2.5-1 3.4-.5.9-1.3 1.6-2.2 2.1-.9.5-2.1.7-3.5.7Zm6.3-.5v-5.8h-.7V590c0-1.2-.3-2.1-.9-2.7s-1.5-.9-2.8-.9h-4.6c-.8 0-1.5 0-2.1.1v-3.6c.5 0 1.1 0 1.7-.1h4c2 0 3.6.3 4.9.8s2.3 1.3 2.9 2.4c.6 1.1 1 2.5 1 4.4v12.1h-3.3Zm9.2 0V583h3.3v8.3h-.4c0-1.9.3-3.5.8-4.9.5-1.3 1.3-2.3 2.4-3 1.1-.7 2.4-1 3.9-1h.2c2.4 0 4.2.8 5.4 2.3 1.2 1.5 1.8 3.7 1.8 6.6v11.1H690v-11.7c0-1.3-.4-2.4-1.2-3.3-.8-.8-1.8-1.2-3.2-1.2s-2.5.4-3.3 1.3c-.8.9-1.3 2-1.3 3.4v11.5h-4.2Zm29.9.6c-2.6 0-4.7-.6-6.1-1.7-1.5-1.1-2.2-2.6-2.3-4.6h3.9c0 .7.4 1.4 1.1 2 .7.6 1.8.9 3.4.9s2.4-.3 3.2-.8c.8-.5 1.2-1.2 1.2-2s-.3-1.3-.8-1.7-1.5-.7-2.9-.8l-1.9-.2c-2-.2-3.6-.8-4.7-1.8s-1.7-2.3-1.7-3.9.3-2.4 1-3.3c.6-.9 1.5-1.6 2.7-2.1 1.1-.5 2.5-.7 3.9-.7 2.3 0 4.2.5 5.6 1.5 1.4 1 2.1 2.5 2.2 4.5h-3.9c0-.7-.4-1.4-1-1.9s-1.6-.8-2.9-.8-2.1.2-2.8.7c-.6.5-1 1.1-1 1.8s.2 1.2.7 1.6c.5.4 1.3.6 2.3.8l1.9.2c2.2.2 3.9.8 5.2 1.8 1.3 1 1.9 2.3 1.9 4s-.3 2.3-1 3.3c-.7.9-1.7 1.7-2.9 2.2s-2.7.8-4.3.8Zm18.3-.1c-1.4 0-2.7-.2-3.7-.7-1.1-.5-1.9-1.2-2.4-2.2s-.9-2.1-.9-3.4.3-2.5 1-3.5 1.6-1.6 2.8-2.1 2.7-.7 4.4-.7h4.9v2.8h-5c-1.3 0-2.2.3-2.9.9s-1 1.4-1 2.4.3 1.8 1 2.4 1.6.9 2.9.9 1.5-.1 2.1-.4c.7-.3 1.2-.7 1.7-1.4.4-.6.7-1.6.7-2.7l1.1 1.4c-.1 1.4-.5 2.5-1 3.4-.5.9-1.3 1.6-2.2 2.1-.9.5-2.1.7-3.5.7Zm6.3-.5v-5.8h-.7V590c0-1.2-.3-2.1-.9-2.7s-1.5-.9-2.8-.9h-4.6c-.8 0-1.5 0-2.1.1v-3.6c.5 0 1.1 0 1.7-.1h4c2 0 3.6.3 4.9.8s2.3 1.3 2.9 2.4c.6 1.1 1 2.5 1 4.4v12.1h-3.3Zm17.6.7c-1.7 0-3.1-.3-4.3-.8s-2.3-1.3-3.1-2.3c-.8-1-1.4-2.1-1.8-3.2-.4-1.2-.6-2.4-.6-3.6v-.6c0-1.3.2-2.5.6-3.7.4-1.2 1-2.3 1.8-3.2.8-1 1.8-1.7 3-2.3 1.2-.6 2.6-.8 4.3-.8s3.1.3 4.4.9c1.3.6 2.4 1.5 3.2 2.6s1.2 2.5 1.3 4h-4.1c-.1-1.1-.6-2-1.5-2.7s-2-1.1-3.4-1.1-2.3.3-3.1.9c-.8.6-1.4 1.4-1.8 2.4-.4 1-.6 2.1-.6 3.4s.2 2.4.6 3.4c.4 1 1 1.8 1.8 2.4s1.9.9 3.1.9 1.8-.2 2.5-.5 1.3-.8 1.7-1.4c.4-.6.7-1.3.8-2h4.1c0 1.6-.5 2.9-1.3 4s-1.9 2-3.2 2.7-2.9 1-4.5 1Zm10.8-16.9v-3.1h13.5v3.1h-13.5Zm10.6 16.4c-1.6 0-3-.2-4.1-.6-1.1-.4-1.9-1.2-2.5-2.2-.6-1.1-.8-2.5-.8-4.3v-18.1h4v18.5c0 1 .3 1.8.8 2.3s1.3.8 2.3.8h3.2v3.7h-2.9Zm5.6-16.3v-3.2h7.1v3.2h-7.1Zm4.2-6c-.9 0-1.5-.2-1.9-.7-.4-.5-.6-1-.6-1.8s.2-1.3.6-1.7 1.1-.7 1.9-.7 1.5.2 2 .7c.4.5.6 1 .6 1.7s-.2 1.3-.6 1.8c-.4.5-1.1.7-2 .7Zm-1.4 22.1V583h4.2v19.4h-4.2Zm19.6.7c-1.7 0-3.2-.3-4.5-.8s-2.4-1.3-3.3-2.2c-.9-.9-1.6-2-2-3.2-.5-1.2-.7-2.4-.7-3.7v-.7c0-1.3.2-2.5.7-3.7.5-1.2 1.2-2.3 2.1-3.2.9-.9 2-1.7 3.3-2.2s2.8-.8 4.4-.8 3.1.3 4.4.8c1.3.6 2.4 1.3 3.3 2.2.9.9 1.6 2 2.1 3.2.5 1.2.7 2.4.7 3.7v.7c0 1.3-.2 2.5-.7 3.7-.5 1.2-1.1 2.2-2 3.2-.9.9-2 1.7-3.3 2.2s-2.8.8-4.5.8Zm0-3.7c1.3 0 2.4-.3 3.4-.9.9-.6 1.7-1.4 2.1-2.4.5-1 .7-2.1.7-3.4s-.3-2.4-.8-3.4-1.2-1.8-2.2-2.4c-.9-.6-2.1-.9-3.3-.9s-2.4.3-3.3.9c-.9.6-1.7 1.4-2.2 2.4-.5 1-.8 2.1-.8 3.4s.2 2.4.7 3.4 1.2 1.8 2.1 2.4c.9.6 2.1.9 3.4.9Zm15.3 3V583h3.3v8.3h-.4c0-1.9.3-3.5.8-4.9.5-1.3 1.3-2.3 2.4-3 1.1-.7 2.4-1 3.9-1h.2c2.4 0 4.2.8 5.4 2.3 1.2 1.5 1.8 3.7 1.8 6.6v11.1h-4.2v-11.7c0-1.3-.4-2.4-1.2-3.3-.8-.8-1.8-1.2-3.2-1.2s-2.5.4-3.3 1.3c-.8.9-1.3 2-1.3 3.4v11.5h-4.2Zm31.6 0v-26.3h4.3v26.3h-4.3Zm3.6 0v-3.9h11.7v3.9h-11.7Zm21.2.5c-1.4 0-2.7-.2-3.7-.7-1.1-.5-1.9-1.2-2.4-2.2s-.9-2.1-.9-3.4.3-2.5 1-3.5 1.6-1.6 2.8-2.1 2.7-.7 4.4-.7h4.9v2.8h-5c-1.3 0-2.2.3-2.9.9s-1 1.4-1 2.4.3 1.8 1 2.4 1.6.9 2.9.9 1.5-.1 2.1-.4c.7-.3 1.2-.7 1.7-1.4.4-.6.7-1.6.7-2.7l1.1 1.4c-.1 1.4-.5 2.5-1 3.4-.5.9-1.3 1.6-2.2 2.1-.9.5-2.1.7-3.5.7Zm6.3-.5v-5.8h-.7V590c0-1.2-.3-2.1-.9-2.7s-1.5-.9-2.8-.9h-4.6c-.8 0-1.5 0-2.1.1v-3.6c.5 0 1.1 0 1.7-.1h4c2 0 3.6.3 4.9.8s2.3 1.3 2.9 2.4c.6 1.1 1 2.5 1 4.4v12.1h-3.3Zm13-.4-6.6-19h4.3l6.3 19h-4Zm-4.9 8v-3.7h3.2c.7 0 1.4 0 1.9-.3.5-.2 1-.5 1.3-.9.3-.4.6-1 .8-1.8l5.7-20.3h4.1l-6.1 21.3c-.4 1.3-.9 2.4-1.6 3.3-.7.8-1.5 1.5-2.6 1.8s-2.3.6-3.8.6h-2.9Zm6-8v-3.4h4.2v3.4h-4.2Zm23 1.1c-1.7 0-3.1-.3-4.4-.9s-2.3-1.3-3.1-2.3c-.8-.9-1.4-2-1.8-3.2-.4-1.2-.6-2.4-.6-3.7v-.7c0-1.3.2-2.5.6-3.7.4-1.2 1-2.3 1.8-3.2.8-.9 1.8-1.7 3-2.3 1.2-.6 2.6-.8 4.2-.8s3.8.5 5.2 1.4 2.4 2.1 3.1 3.5c.7 1.5 1 3 1 4.7v1.7h-17.2v-2.8h14.4l-1.2 1.4c0-1.3-.2-2.4-.6-3.4s-1-1.7-1.8-2.2c-.8-.5-1.8-.8-3-.8s-2.3.3-3.1.9c-.8.6-1.5 1.4-1.9 2.4s-.6 2.2-.6 3.6.2 2.5.6 3.5c.4 1 1 1.8 1.9 2.4s2 .9 3.3.9 2.4-.3 3.3-.9 1.4-1.3 1.6-2.1h3.9c-.3 1.3-.8 2.5-1.6 3.5s-1.8 1.7-3 2.3c-1.2.5-2.6.8-4.2.8Zm13.7-.7V583h3.3v8.1h-.1c0-2.8.6-4.9 1.8-6.2 1.2-1.4 3-2.1 5.4-2.1h.7v3.7h-1.3c-1.8 0-3.2.5-4.2 1.5s-1.5 2.4-1.5 4.2v10.3H927ZM521 645.8v-26.6h4.3v26.6H521Zm3.6-12.4v-2.7h6c1.4 0 2.4-.4 3-1.1.6-.7 1-1.7 1-2.8s-.3-2.1-1-2.9c-.6-.7-1.6-1.1-3-1.1h-6v-3.6h5.4c2.9 0 5.1.6 6.6 1.9 1.5 1.2 2.2 3 2.2 5.3v.5c0 1.6-.4 2.9-1.1 3.9-.8 1-1.8 1.6-3.1 2-1.3.4-2.9.6-4.6.6h-5.4Zm0 12.4v-3.6h6.9c1.3 0 2.3-.4 3-1.1s1.1-1.7 1.1-3-.3-2.3-1-3c-.7-.7-1.7-1.1-3-1.1h-6.9v-2.7h6.5c1.7 0 3.3.2 4.6.6s2.4 1.1 3.1 2.1c.8 1 1.2 2.3 1.2 3.9v.5c0 1.5-.3 2.9-1 3.9s-1.6 1.9-3 2.5c-1.3.6-2.9.8-4.9.8h-6.5Zm28.9.5c-1.7 0-3.1-.3-4.4-.9s-2.3-1.3-3.1-2.3c-.8-.9-1.4-2-1.8-3.2-.4-1.2-.6-2.4-.6-3.7v-.7c0-1.3.2-2.5.6-3.7.4-1.2 1-2.3 1.8-3.2.8-.9 1.8-1.7 3-2.3 1.2-.6 2.6-.8 4.2-.8s3.8.5 5.2 1.4 2.4 2.1 3.1 3.5c.7 1.5 1 3 1 4.7v1.7h-17.2V634h14.4l-1.2 1.4c0-1.3-.2-2.4-.6-3.4s-1-1.7-1.8-2.2c-.8-.5-1.8-.8-3-.8s-2.3.3-3.1.9c-.8.6-1.5 1.4-1.9 2.4s-.6 2.2-.6 3.6.2 2.5.6 3.5c.4 1 1 1.8 1.9 2.4s2 .9 3.3.9 2.4-.3 3.3-.9 1.4-1.3 1.6-2.1h3.9c-.3 1.3-.8 2.5-1.6 3.5s-1.8 1.7-3 2.3c-1.2.5-2.6.8-4.2.8Zm11.1-16.9v-3.1h13.5v3.1h-13.5Zm10.6 16.4c-1.6 0-3-.2-4.1-.6-1.1-.4-1.9-1.2-2.5-2.2-.6-1.1-.8-2.5-.8-4.3v-18.1h4v18.5c0 1 .3 1.8.8 2.3s1.3.8 2.3.8h3.2v3.7h-2.9Zm10.6-.2-5.4-19.4h4.1l5.1 19.4h-3.9Zm1.4 0v-3.4h4v3.4h-4Zm1.6 0 3.8-18.8h5.2l4.4 18.8h-3.5l-4.5-18.6h1.6l-3.9 18.6h-3.2Zm11 0v-3.4h4v3.4h-4Zm1.6 0 4.5-19.4h3.9l-4.8 19.4h-3.6Zm20.8.7c-1.7 0-3.1-.3-4.4-.9s-2.3-1.3-3.1-2.3c-.8-.9-1.4-2-1.8-3.2-.4-1.2-.6-2.4-.6-3.7v-.7c0-1.3.2-2.5.6-3.7.4-1.2 1-2.3 1.8-3.2.8-.9 1.8-1.7 3-2.3 1.2-.6 2.6-.8 4.2-.8s3.8.5 5.2 1.4 2.4 2.1 3.1 3.5c.7 1.5 1 3 1 4.7v1.7H614V634h14.4l-1.2 1.4c0-1.3-.2-2.4-.6-3.4s-1-1.7-1.8-2.2c-.8-.5-1.8-.8-3-.8s-2.3.3-3.1.9c-.8.6-1.5 1.4-1.9 2.4s-.6 2.2-.6 3.6.2 2.5.6 3.5c.4 1 1 1.8 1.9 2.4s2 .9 3.3.9 2.4-.3 3.3-.9 1.4-1.3 1.6-2.1h3.9c-.3 1.3-.8 2.5-1.6 3.5s-1.8 1.7-3 2.3c-1.2.5-2.6.8-4.2.8Zm22.1 0c-1.7 0-3.1-.3-4.4-.9s-2.3-1.3-3.1-2.3c-.8-.9-1.4-2-1.8-3.2-.4-1.2-.6-2.4-.6-3.7v-.7c0-1.3.2-2.5.6-3.7.4-1.2 1-2.3 1.8-3.2.8-.9 1.8-1.7 3-2.3 1.2-.6 2.6-.8 4.2-.8s3.8.5 5.2 1.4 2.4 2.1 3.1 3.5c.7 1.5 1 3 1 4.7v1.7h-17.2V634h14.4l-1.2 1.4c0-1.3-.2-2.4-.6-3.4s-1-1.7-1.8-2.2c-.8-.5-1.8-.8-3-.8s-2.3.3-3.1.9c-.8.6-1.5 1.4-1.9 2.4s-.6 2.2-.6 3.6.2 2.5.6 3.5c.4 1 1 1.8 1.9 2.4s2 .9 3.3.9 2.4-.3 3.3-.9 1.4-1.3 1.6-2.1h3.9c-.3 1.3-.8 2.5-1.6 3.5s-1.8 1.7-3 2.3c-1.2.5-2.6.8-4.2.8Zm13.8-.7v-19.4h3.3v8.3h-.4c0-1.9.3-3.5.8-4.9.5-1.3 1.3-2.3 2.4-3 1.1-.7 2.4-1 3.9-1h.2c2.4 0 4.2.8 5.4 2.3 1.2 1.5 1.8 3.7 1.8 6.6v11.1h-4.2v-11.7c0-1.3-.4-2.4-1.2-3.3-.8-.8-1.8-1.2-3.2-1.2s-2.5.4-3.3 1.3c-.8.9-1.3 2-1.3 3.4v11.5h-4.2Zm43.2.7c-2.4 0-4.4-.4-6.1-1.2-1.7-.8-3.1-1.9-4.1-3.3-1-1.4-1.8-2.8-2.3-4.4-.5-1.6-.7-3.1-.7-4.6v-.8c0-1.6.3-3.2.8-4.8.5-1.6 1.3-3 2.3-4.3s2.4-2.3 4.1-3.1 3.6-1.2 5.9-1.2 4.4.4 6.2 1.3c1.7.8 3.1 2 4.1 3.5s1.6 3.3 1.8 5.3h-4.4c-.2-1.3-.6-2.5-1.3-3.4-.7-.9-1.6-1.6-2.7-2-1.1-.5-2.3-.7-3.7-.7s-2.7.3-3.8.8-2 1.2-2.7 2.1c-.7.9-1.3 1.9-1.6 3.1-.4 1.2-.6 2.5-.6 3.9s.2 2.6.6 3.8c.4 1.2.9 2.2 1.7 3.2.7.9 1.7 1.6 2.8 2.1 1.1.5 2.4.8 3.9.8 2.1 0 3.9-.5 5.3-1.6 1.4-1 2.3-2.5 2.6-4.5h4.4c-.2 1.8-.9 3.5-1.9 5.1-1 1.5-2.4 2.7-4.1 3.6-1.8.9-3.9 1.4-6.3 1.4Zm25.7 0c-1.7 0-3.2-.3-4.5-.8s-2.4-1.3-3.3-2.2c-.9-.9-1.6-2-2-3.2-.5-1.2-.7-2.4-.7-3.7v-.7c0-1.3.2-2.5.7-3.7.5-1.2 1.2-2.3 2.1-3.2.9-.9 2-1.7 3.3-2.2s2.8-.8 4.4-.8 3.1.3 4.4.8c1.3.6 2.4 1.3 3.3 2.2.9.9 1.6 2 2.1 3.2.5 1.2.7 2.4.7 3.7v.7c0 1.3-.2 2.5-.7 3.7-.5 1.2-1.1 2.2-2 3.2-.9.9-2 1.7-3.3 2.2s-2.8.8-4.5.8Zm0-3.7c1.3 0 2.4-.3 3.4-.9.9-.6 1.7-1.4 2.1-2.4.5-1 .7-2.1.7-3.4s-.3-2.4-.8-3.4-1.2-1.8-2.2-2.4c-.9-.6-2.1-.9-3.3-.9s-2.4.3-3.3.9c-.9.6-1.7 1.4-2.2 2.4-.5 1-.8 2.1-.8 3.4s.2 2.4.7 3.4 1.2 1.8 2.1 2.4c.9.6 2.1.9 3.4.9Zm22 3.6c-2.3 0-4-.7-5.3-2.2-1.2-1.5-1.8-3.7-1.8-6.5v-11.2h4.2v11.8c0 1.3.4 2.4 1.1 3.2.7.8 1.8 1.2 3 1.2s2.4-.4 3.2-1.2c.8-.8 1.2-2 1.2-3.4v-11.5h4.2v19.4h-3.3v-8.3h.4c0 1.9-.3 3.6-.8 4.9-.5 1.3-1.3 2.3-2.3 3-1 .7-2.2 1-3.8 1h-.2Zm16.2-.6v-19.4h3.3v8.3h-.4c0-1.9.3-3.5.8-4.9.5-1.3 1.3-2.3 2.4-3 1.1-.7 2.4-1 3.9-1h.2c2.4 0 4.2.8 5.4 2.3 1.2 1.5 1.8 3.7 1.8 6.6v11.1h-4.2v-11.7c0-1.3-.4-2.4-1.2-3.3-.8-.8-1.8-1.2-3.2-1.2s-2.5.4-3.3 1.3c-.8.9-1.3 2-1.3 3.4v11.5h-4.2Zm20.5-16.2v-3.1h13.5v3.1h-13.5Zm10.6 16.4c-1.6 0-3-.2-4.1-.6-1.1-.4-1.9-1.2-2.5-2.2-.6-1.1-.8-2.5-.8-4.3v-18.1h4v18.5c0 1 .3 1.8.8 2.3s1.3.8 2.3.8h3.2v3.7h-2.9Zm7.5-.2v-19.4h3.3v8.1h-.1c0-2.8.6-4.9 1.8-6.2 1.2-1.4 3-2.1 5.4-2.1h.7v3.7h-1.3c-1.8 0-3.2.5-4.2 1.5s-1.5 2.4-1.5 4.2v10.3h-4.2Zm13-16.1v-3.2h7.1v3.2h-7.1Zm4.2-6c-.9 0-1.5-.2-1.9-.7-.4-.5-.6-1-.6-1.8s.2-1.3.6-1.7 1.1-.7 1.9-.7 1.5.2 2 .7c.4.5.6 1 .6 1.7s-.2 1.3-.6 1.8c-.4.5-1.1.7-2 .7Zm-1.4 22.1v-19.4h4.2v19.4h-4.2Zm19 .7c-1.7 0-3.1-.3-4.4-.9s-2.3-1.3-3.1-2.3c-.8-.9-1.4-2-1.8-3.2-.4-1.2-.6-2.4-.6-3.7v-.7c0-1.3.2-2.5.6-3.7.4-1.2 1-2.3 1.8-3.2.8-.9 1.8-1.7 3-2.3 1.2-.6 2.6-.8 4.2-.8s3.8.5 5.2 1.4 2.4 2.1 3.1 3.5c.7 1.5 1 3 1 4.7v1.7h-17.2V634h14.4l-1.2 1.4c0-1.3-.2-2.4-.6-3.4s-1-1.7-1.8-2.2c-.8-.5-1.8-.8-3-.8s-2.3.3-3.1.9c-.8.6-1.5 1.4-1.9 2.4s-.6 2.2-.6 3.6.2 2.5.6 3.5c.4 1 1 1.8 1.9 2.4s2 .9 3.3.9 2.4-.3 3.3-.9 1.4-1.3 1.6-2.1h3.9c-.3 1.3-.8 2.5-1.6 3.5s-1.8 1.7-3 2.3c-1.2.5-2.6.8-4.2.8Zm20.4-.1c-2.6 0-4.7-.6-6.1-1.7-1.5-1.1-2.2-2.6-2.3-4.6h3.9c0 .7.4 1.4 1.1 2 .7.6 1.8.9 3.4.9s2.4-.3 3.2-.8c.8-.5 1.2-1.2 1.2-2s-.3-1.3-.8-1.7-1.5-.7-2.9-.8l-1.9-.2c-2-.2-3.6-.8-4.7-1.8s-1.7-2.3-1.7-3.9.3-2.4 1-3.3c.6-.9 1.5-1.6 2.7-2.1 1.1-.5 2.5-.7 3.9-.7 2.3 0 4.2.5 5.6 1.5 1.4 1 2.1 2.5 2.2 4.5h-3.9c0-.7-.4-1.4-1-1.9s-1.6-.8-2.9-.8-2.1.2-2.8.7c-.6.5-1 1.1-1 1.8s.2 1.2.7 1.6c.5.4 1.3.6 2.3.8l1.9.2c2.2.2 3.9.8 5.2 1.8 1.3 1 1.9 2.3 1.9 4s-.3 2.3-1 3.3c-.7.9-1.7 1.7-2.9 2.2s-2.7.8-4.3.8Z"></path><path fill="none" stroke="#000" stroke-miterlimit="10" stroke-width="2" d="M1688.1 837.7 1450 610H978.1"></path><path d="M2889.4 1722v-27.1h1.2v27.1h-1.2Zm.5-10.8v-1.1h6.8c1.8 0 3.2-.3 4.3-1 1.1-.6 1.8-1.5 2.3-2.6s.7-2.2.7-3.5-.2-2.5-.7-3.5-1.3-1.9-2.3-2.6c-1.1-.6-2.5-1-4.3-1h-6.8v-1.1h6.7c2 0 3.7.4 5 1.1 1.3.7 2.2 1.7 2.8 2.9.6 1.2.9 2.5.9 3.9v.4c0 1.4-.3 2.7-.9 3.9-.6 1.2-1.5 2.2-2.8 2.9-1.3.7-2.9 1.1-5 1.1h-6.7Zm33.4 11.4c-2.2 0-4.1-.4-5.8-1.2-1.7-.8-3.1-1.9-4.3-3.2-1.1-1.3-2-2.8-2.6-4.5-.6-1.7-.9-3.3-.9-5v-.4c0-1.8.3-3.4.9-5.1.6-1.6 1.5-3.1 2.7-4.5s2.6-2.4 4.3-3.2c1.7-.8 3.6-1.2 5.7-1.2s4 .4 5.7 1.2c1.7.8 3.1 1.8 4.3 3.2s2.1 2.8 2.7 4.5c.6 1.6.9 3.3.9 5.1v.5c0 1.7-.3 3.4-.9 5-.6 1.6-1.4 3.1-2.6 4.5s-2.6 2.4-4.2 3.2c-1.7.8-3.6 1.2-5.8 1.2Zm0-1.1c2 0 3.8-.4 5.3-1.1 1.5-.7 2.8-1.7 3.9-3 1-1.2 1.8-2.6 2.4-4.2.5-1.6.8-3.1.8-4.8s-.3-3.3-.8-4.9c-.6-1.6-1.4-2.9-2.4-4.2-1.1-1.2-2.4-2.2-3.9-2.9-1.5-.7-3.3-1.1-5.2-1.1s-3.6.4-5.2 1.1c-1.5.7-2.8 1.7-3.9 2.9s-1.9 2.6-2.5 4.2-.8 3.2-.8 4.9.3 3.2.8 4.8c.5 1.6 1.3 3 2.4 4.2 1 1.2 2.3 2.2 3.9 3 1.5.7 3.3 1.1 5.3 1.1Zm25 .5-7.8-27h1.2l7.6 26.3-.4-.4h2l-.3.4 6.3-25h1.1l-6.5 25.7h-3.1Zm16.2 0-7-25.7h1.1l6.8 25-.4-.4h2.1l-.4.4 7-26.3h1.2l-7.2 27h-3.1Zm16.7 0v-27h1.2v27h-1.2Zm.6-25.9v-1.1h13.8v1.1h-13.8Zm0 12.7v-1.1h12.9v1.1h-12.9Zm0 13.2v-1.1h14.3v1.1h-14.3Zm21.9 0v-27.1h1.2v27.1h-1.2Zm.4-11.2v-1.1h7.2c1.8 0 3.1-.3 4.2-.9 1-.6 1.8-1.4 2.2-2.5.5-1 .7-2.2.7-3.4s-.2-2.4-.7-3.4c-.5-1-1.2-1.9-2.2-2.5s-2.4-.9-4.2-.9h-7.2v-1.1h7.2c2 0 3.6.4 4.8 1.1 1.2.7 2.1 1.7 2.7 2.8.6 1.2.8 2.5.8 3.8v.4c0 1.4-.3 2.7-.8 3.8-.6 1.2-1.4 2.1-2.7 2.8s-2.8 1.1-4.8 1.1h-7.2Zm16.5 11.2-9.8-11.8h1.4l9.8 11.8h-1.5Zm7.5 0v-27h1.2v27h-1.2Zm.7-25.9v-1.1h13.8v1.1h-13.8Zm0 12.7v-1.1h12.9v1.1h-12.9Zm0 13.2v-1.1h14.3v1.1h-14.3Zm21.8.1v-27.2h1.2v27.2h-1.2Zm.5 0v-1.1h8.6c2.2 0 4.1-.4 5.6-1.1s2.8-1.7 3.8-2.8 1.7-2.5 2.2-4 .7-3 .7-4.6-.2-3.2-.7-4.7-1.3-2.8-2.3-4c-1-1.2-2.3-2.1-3.9-2.8-1.6-.7-3.4-1-5.5-1h-8.6v-1.1h8.5c2.4 0 4.4.4 6.1 1.1 1.7.7 3.2 1.7 4.3 3 1.1 1.3 2 2.7 2.5 4.3s.8 3.2.8 4.9v.5c0 1.6-.3 3.2-.8 4.8s-1.3 3-2.4 4.3-2.5 2.3-4.3 3.1c-1.7.8-3.8 1.2-6.3 1.2h-8.5Zm38.3 0V1695h1.2v27.1h-1.2Zm.5-13.5v-.9h7.6c2 0 3.6-.5 4.5-1.6s1.5-2.5 1.5-4.2-.5-3.1-1.5-4.2-2.5-1.6-4.5-1.6h-7.6v-1.1h7.4c2.5 0 4.3.6 5.6 1.9 1.2 1.3 1.8 2.9 1.8 4.9v.3c0 1.4-.3 2.5-.9 3.5-.6 1-1.4 1.7-2.5 2.3-1.1.5-2.4.8-4 .8h-7.4Zm0 13.5v-1.1h8.6c1.9 0 3.4-.6 4.5-1.7s1.6-2.6 1.6-4.4-.5-3.2-1.6-4.3c-1.1-1.1-2.6-1.7-4.5-1.7h-8.6v-.9h8.4c1.5 0 2.8.3 3.9.8s2 1.3 2.6 2.3 1 2.2 1 3.6v.3c0 1.3-.3 2.4-.8 3.5s-1.4 1.9-2.5 2.6c-1.1.6-2.5 1-4.2 1h-8.4Zm28.3-10.8-8.8-16.3h1.3l8.5 15.8-.7-.6h3.5l-.7.6 8.1-15.8h1.2l-8.5 16.3h-4Zm1.4 10.7v-11.1h1.2v11.1h-1.2Zm24.7 0v-27h4.4v27h-4.4Zm3.5-11.5v-4h15.3v4h-15.3Zm14.5 11.5v-27h4.4v27h-4.4Zm16.9-10.4-8.4-16.6h4.6l6.7 13.6-1.3-.4h3.9l-1.4.4 6.2-13.6h4.3l-7.8 16.6h-7Zm1.3 10.4v-11.2h4.3v11.2h-4.3Zm17.6 0v-27.2h4.4v27.2h-4.4Zm3.7-8.9v-3.9h5.6c1.2 0 2.2-.2 2.9-.7s1.4-1.1 1.8-1.9c.4-.8.6-1.7.6-2.7s-.2-2-.6-2.8c-.4-.8-1-1.4-1.8-1.9-.8-.4-1.8-.7-2.9-.7h-5.6v-3.9h5.1c2.2 0 4.1.4 5.7 1.1 1.5.7 2.7 1.8 3.5 3.1s1.2 2.9 1.2 4.7v.6c0 1.8-.4 3.4-1.2 4.7s-2 2.4-3.5 3.1c-1.5.7-3.4 1.1-5.7 1.1h-5.1Zm20.3 8.9v-27h4.4v27h-4.4Zm3.7-23.2v-3.8h12.3v3.8h-12.3Zm0 11.4v-3.8h11.6v3.8h-11.6Zm0 11.8v-3.8h12.6v3.8h-12.6Zm18.4 0v-27.2h4.4v27.2h-4.4Zm3-9.4v-3.7h7c1.1 0 2-.2 2.7-.6.8-.4 1.3-1 1.8-1.8.4-.8.6-1.7.6-2.7s-.2-1.9-.6-2.6c-.4-.8-1-1.4-1.8-1.8-.8-.4-1.7-.7-2.7-.7h-7v-3.8h6.4c2.1 0 3.9.3 5.4.9 1.5.6 2.7 1.6 3.5 2.8.8 1.3 1.3 2.9 1.3 4.8v.6c0 2-.4 3.6-1.3 4.8s-2 2.2-3.5 2.8c-1.5.6-3.3.9-5.4.9h-6.4Zm13.6 9.4-8.6-11.9h5l8.8 11.9h-5.3Zm9.7 0v-27h4.4v27h-4.4Zm3.7 0v-4h12v4h-12Zm16.6 0v-27h4.4v27h-4.4Zm3.6-23.2v-3.8h12.3v3.8h-12.3Zm0 11.4v-3.8h11.6v3.8h-11.6Zm0 11.8v-3.8h12.6v3.8h-12.6Zm18.5.1v-27.3h4.4v27.3h-4.4Zm3.7 0v-4.1h6.2c1.5 0 2.8-.2 4-.7 1.2-.5 2.2-1.2 3-2 .8-.9 1.5-1.9 1.9-3.1.4-1.2.6-2.4.6-3.8s-.2-2.8-.6-3.9-1.1-2.2-1.9-3c-.8-.8-1.8-1.5-3-1.9-1.2-.5-2.5-.7-4-.7h-6.2v-4.1h5.8c2.4 0 4.6.4 6.4 1.1 1.8.7 3.3 1.7 4.5 3s2.1 2.7 2.7 4.3.9 3.2.9 4.9v.8c0 1.6-.3 3.2-.9 4.8s-1.5 3-2.7 4.3-2.7 2.3-4.5 3.1c-1.8.8-3.9 1.2-6.4 1.2h-5.8Zm37.7.5c-2.2 0-4.2-.4-5.9-1.1-1.7-.7-3.2-1.7-4.4-3-1.2-1.3-2.1-2.8-2.8-4.5-.6-1.7-.9-3.5-.9-5.4v-.8c0-1.7.3-3.4.9-5 .6-1.6 1.5-3.1 2.6-4.4 1.1-1.3 2.6-2.3 4.2-3.1 1.7-.8 3.6-1.1 5.7-1.1s4.3.4 6.1 1.3c1.8.9 3.2 2.1 4.3 3.6 1.1 1.5 1.7 3.3 1.9 5.3h-4.5c-.1-1.3-.6-2.5-1.3-3.4-.8-.9-1.7-1.6-2.8-2.1-1.1-.5-2.3-.7-3.7-.7s-2.5.2-3.6.7c-1.1.5-2 1.2-2.8 2s-1.4 1.9-1.8 3.1c-.4 1.2-.6 2.6-.6 4.1s.2 3.2.7 4.4c.5 1.3 1.1 2.4 1.9 3.2s1.8 1.5 3 2 2.5.7 3.9.7 3.7-.4 5.1-1.2c1.5-.8 2.6-1.8 3.3-3.1l-1.1 4.3v-7.5h4.1v6.2c-1.2 1.7-2.8 3-4.7 3.9-1.9.9-4.2 1.4-6.7 1.4Zm-.9-10.6v-3.5h14.6v3.5h-14.6Zm19.4 10v-27h4.4v27h-4.4Zm3.6-23.2v-3.8h12.3v3.8h-12.3Zm0 11.4v-3.8h11.6v3.8h-11.6Zm0 11.8v-3.8h12.6v3.8h-12.6Zm18.5 0v-27.2h4.4v27.2h-4.4Zm3-9.4v-3.7h7c1.1 0 2-.2 2.7-.6.8-.4 1.3-1 1.8-1.8.4-.8.6-1.7.6-2.7s-.2-1.9-.6-2.6c-.4-.8-1-1.4-1.8-1.8-.8-.4-1.7-.7-2.7-.7h-7v-3.8h6.4c2.1 0 3.9.3 5.4.9 1.5.6 2.7 1.6 3.5 2.8.8 1.3 1.3 2.9 1.3 4.8v.6c0 2-.4 3.6-1.3 4.8s-2 2.2-3.5 2.8c-1.5.6-3.3.9-5.4.9h-6.4Zm13.6 9.4-8.6-11.9h5l8.8 11.9h-5.3Zm17.9 0v-27h4.4v27h-4.4Zm11.8 0v-27.2h4.4v27.2h-4.4Zm3-9.4v-3.7h7c1.1 0 2-.2 2.7-.6.8-.4 1.3-1 1.8-1.8.4-.8.6-1.7.6-2.7s-.2-1.9-.6-2.6c-.4-.8-1-1.4-1.8-1.8-.8-.4-1.7-.7-2.7-.7h-7v-3.8h6.4c2.1 0 3.9.3 5.4.9 1.5.6 2.7 1.6 3.5 2.8.8 1.3 1.3 2.9 1.3 4.8v.6c0 2-.4 3.6-1.3 4.8s-2 2.2-3.5 2.8c-1.5.6-3.3.9-5.4.9h-6.4Zm13.5 9.4-8.6-11.9h5l8.8 11.9h-5.3Zm21.7.6c-2.4 0-4.5-.4-6.3-1.3-1.8-.8-3.2-2-4.4-3.4-1.2-1.4-2-2.9-2.6-4.5-.6-1.6-.8-3.2-.8-4.6v-.8c0-1.6.3-3.3.9-4.9s1.5-3.1 2.6-4.5c1.2-1.3 2.6-2.4 4.4-3.2 1.8-.8 3.8-1.2 6.2-1.2s4.4.4 6.2 1.2 3.2 1.9 4.4 3.2c1.2 1.3 2.1 2.8 2.6 4.5s.9 3.3.9 4.9v.8c0 1.5-.3 3-.9 4.6s-1.4 3.1-2.6 4.5c-1.1 1.4-2.6 2.5-4.4 3.4-1.8.9-3.9 1.3-6.3 1.3Zm0-4.1c1.5 0 2.8-.3 4-.8 1.2-.5 2.2-1.3 3-2.2s1.5-2 1.9-3.2c.4-1.2.6-2.5.6-3.8s-.2-2.8-.7-4c-.4-1.2-1.1-2.3-1.9-3.2-.8-.9-1.8-1.6-3-2.2-1.2-.5-2.5-.8-4-.8s-2.8.3-4 .8c-1.2.5-2.2 1.2-3 2.2-.8.9-1.5 2-1.9 3.2-.4 1.2-.6 2.5-.6 4s.2 2.6.6 3.8c.4 1.2 1.1 2.3 1.9 3.2.8.9 1.8 1.7 3 2.2 1.2.5 2.5.8 4 .8Zm19.6 3.5v-27h4.4v27h-4.4Zm3.6-11.5v-4h15.3v4h-15.3Zm14.4 11.5v-27h4.4v27h-4.4Zm8.9 0 9.5-27h7.4l9.8 27h-4.6l-8.5-24 1.8.9h-4.5l1.9-.9-8.3 24h-4.4Zm6.2-7.6 1.4-3.8h11.3l1.4 3.8H3532Zm32.1 7.6v-4.8c0-1.1.2-2.1.5-2.9.3-.8.9-1.5 1.7-2.2.8-.6 1.8-1.3 3.2-1.8l4.8-2.2c1.2-.5 2.1-1.2 2.8-2.1.7-.8 1-1.9 1-3.2s-.4-2.7-1.3-3.6c-.9-.9-2.1-1.3-3.7-1.3s-2.8.4-3.7 1.3c-.9.9-1.3 2.1-1.3 3.6h-4.3c0-1.6.3-3.1 1-4.4.7-1.3 1.7-2.4 3.1-3.2 1.4-.8 3.1-1.2 5.2-1.2s3.8.4 5.2 1.2 2.4 1.8 3.1 3.1 1 2.7 1 4.2v.5c0 2-.6 3.6-1.7 5-1.1 1.3-2.7 2.5-4.8 3.4l-4.8 2.2c-1 .4-1.7.9-2 1.4-.4.5-.6 1.1-.6 1.8v2.9l-1.1-1.6h15.2v3.8h-18.4Z"></path><path d="m1930.9 620.4-12.9-6.6c-2.9-1.5-5.1-3.2-6.6-5.1-1.5-1.9-2.3-3.9-2.3-6 0-3.2 1.1-5.6 3.3-7.3 2.2-1.7 5.2-2.5 9.2-2.5s5.9.8 9 2.4c3.1 1.6 6.2 3.9 9.3 6.8l12.2-14c-4.1-3.9-8.7-6.9-14-8.9-2.8-1.1-5.7-1.9-8.7-2.4V556h-17v20.8c-5.8 1-10.6 3-14.3 6.1-5.5 4.6-8.2 11-8.2 19.3s1.9 11.3 5.6 16.2c3.7 4.9 8.9 9 15.7 12.3l13.7 6.6c5.2 2.5 7.8 5.8 7.8 9.9s-1.3 5.6-3.8 7.3c-2.5 1.7-6.2 2.5-11 2.5s-8.6-.6-13.4-1.7c-4.8-1.1-9.7-2.7-14.6-4.8l-2.4 18.1c4 1.7 8.6 2.9 13.7 3.9 3.7.7 7.6 1.1 11.5 1.3V694h17v-21.3c5.3-1.1 9.7-3 13.3-5.7 6.1-4.6 9.1-11.1 9.1-19.5s-1.8-10.3-5.5-14.9c-3.6-4.6-8.8-8.7-15.5-12.2Zm474.3 462.8c-4.9-4-11.9-6-21-6h-3.4v-2.2c7.4-.3 13.2-2 17.5-5.2 4.7-3.5 7-8.5 7-15s-3-13.4-9-17.5c-4.2-2.8-9.5-4.7-16.1-5.6v-22h-18.6v21.4h-23.1v95.2h23.1v21.4h18.6v-21.5c10.3 0 18.3-2.3 23.9-6.8 5.7-4.6 8.6-11 8.6-19.3s-2.5-13-7.4-17Zm-35.3-35.7c5 0 8.7.8 11.2 2.4 2.5 1.6 3.7 4.1 3.7 7.3s-1.2 6.2-3.5 8c-2.3 1.8-5.8 2.7-10.4 2.7h-13.2v-20.4h12.2Zm17.9 59.2c-2.9 2.3-7.1 3.4-12.4 3.4h-17.6v-25.8h16.6c5.7 0 10.1 1.1 13.2 3.4 3.1 2.2 4.6 5.4 4.6 9.5s-1.5 7.3-4.4 9.6Z" class="st14"></path><ellipse cx="1450.2" cy="1549.1" class="st3" rx="208.9" ry="209" transform="rotate(-45 1450.08164005 1549.15651814)"></ellipse><ellipse cx="2389.1" cy="610.2" class="st3" rx="208.9" ry="209" transform="rotate(-45 2389.14617793 610.1832506)"></ellipse><circle cx="2388.9" cy="1546.9" r="209" fill="none" stroke="#fccfd2" stroke-dasharray="6 3" stroke-miterlimit="10" stroke-width="2" transform="rotate(-45 2388.93485734 1546.87078247)"></circle><ellipse cx="1453.1" cy="611.1" class="st3" rx="208.9" ry="209" transform="rotate(-45 1453.1243315 611.09619408)"></ellipse></svg> 