<?xml version="1.0" encoding="UTF-8"?> <svg xmlns="http://www.w3.org/2000/svg" width="800" height="592" viewBox="0 0 800 592" fill="none"> <path d="M217.3 127.5L228.9 122.6C234.1 133.4 239 144.1 243.6 154.8L231.7 159.3C227.7 150.2 222.9 139.6 217.3 127.5ZM278.5 121.8C278.2 132.3 277.2 141.1 275.5 148C273.7 154.9 270.8 160.8 266.9 165.5C263 170.2 258.1 173.8 252.2 176.3C246.3 178.8 238.7 180.7 229.5 182L231.8 193.3C246 191.5 257.3 188 265.7 183C274 178 280.2 170.6 284.3 160.9C288.3 151.2 290.6 138.4 291 122.5L278.5 121.8ZM217.5 249.1H276.6C274.8 257.9 270 264.4 262.3 268.6C254.6 272.8 244 275.3 230.5 276.1L232.3 287.1C251.9 286.1 266.5 281.6 275.9 273.9C285.3 266.1 290.1 254.9 290.1 240.2V238.1H217.6V249.1H217.5ZM284.4 225.2V214.2H224.2V225.2H284.4ZM288.6 378.5L289.9 366.4C266 362.3 242.5 359.8 219.3 359L218.7 371.1C241.3 371.9 264.6 374.4 288.6 378.5ZM285.5 322.6L286.9 310.7C266 307.8 244.8 306 223.3 305.2L222.7 317.1C243.3 317.8 264.2 319.7 285.5 322.6ZM279.7 349L281.4 336.9C262.4 333.6 244.5 331.7 227.7 331L226.8 343.2C244 344 261.7 345.9 279.7 349ZM224.3 434.9L236.3 432.3C233.3 420.3 230.5 410.1 228 401.7L216.4 404.3C218.8 412.9 221.4 423.1 224.3 434.9ZM279.4 399C279.2 409.6 278.3 418.4 276.5 425.3C274.8 432.3 272 438.1 268.1 442.8C264.2 447.5 259.3 451 253.3 453.5C247.3 456 239.6 457.8 230.2 458.9L232.5 470.2C246.8 468.6 258.1 465.3 266.5 460.3C274.9 455.3 281.1 447.9 285.2 438.3C289.3 428.6 291.4 415.8 291.6 399.8L279.4 399ZM249.5 432.8L261.5 430.2C258.6 418.5 255.9 407.9 253.2 398.6L241.2 401.3C244 411.5 246.8 422 249.5 432.8Z" fill="#E3232C"></path> <path d="M169.4 312V299.5H189.7V291.1H169.4V280.6H192V272.2H147.3C147.6 271.3 148.2 269.4 149.2 266.4L139.4 264.5C136 275.4 131.2 285.6 125.2 295L133.8 300.3C135.1 298.3 136.4 296.1 137.8 293.6V312H124.9V320.6H159V335.1H169.5V320.6H195.4V312H169.4ZM158.9 312H147.6V299.5H158.9V312ZM158.9 291.1H139C140.5 288.1 142.2 284.6 143.9 280.6H158.8V291.1H158.9Z" fill="#E3232C"></path> <path d="M193.5 248V192.3H129.2V220.6C129.1 229.8 128.7 236.8 127.7 241.5C126.8 246.2 125.1 250.4 122.6 254.1L130.5 260.9C133.6 256.5 135.8 251.7 137.1 246.4C138.4 241.1 139 234 139 224.9V200.6H156.5V205.3H143V212.7H156.5V218.5H141.7V226.1H181V218.5H166.2V212.7H179.8V205.3H166.2V200.6H183.7V248.3C183.7 250 183.6 251 183.2 251.4C182.9 251.8 181.9 251.9 180.1 251.9C180 251.9 179.8 251.9 179.6 251.9C179.3 251.9 179.1 251.9 179 251.8V229.7H143.5V256H152.6V252.4H171.4L171.8 260C177.2 260.3 180.5 260.4 181.7 260.4C184.6 260.4 186.7 260.4 188.1 260.2C189.5 260 190.7 259.4 191.6 258.4C192.5 257.4 193.1 256.2 193.3 254.8C193.5 253.5 193.5 251.2 193.5 248ZM169.8 245.6H152.5V237H169.8V245.6Z" fill="#E3232C"></path> <path d="M153.7 137.9C151 154.1 145 168.8 135.8 181.8L126.9 177C135.6 164.9 141.4 151.2 144.2 136.1L153.7 137.9ZM144.8 121.8H177.5C178 131.8 179.8 141.6 182.9 151.1C186 160.6 190.2 169.2 195.4 176.9L186.5 181.7C176.5 166.8 170.5 149.6 168.5 130.2H144.8V121.8Z" fill="#E3232C"></path> <path d="M607.6 243.2H595.8C587.6 243.2 580.9 236.5 580.9 228.3H534.5C526.3 228.3 519.6 221.6 519.6 213.4C519.6 205.2 526.3 198.5 534.5 198.5H646.8C615.7 153.5 563.7 124 504.8 124C423.2 124 354.9 180.6 336.9 256.7H480.8C489 256.7 495.7 263.4 495.7 271.6C495.7 279.8 489 286.5 480.8 286.5H434.4C434.4 294.7 427.7 301.4 419.5 301.4H332.3C332.5 308.8 333.2 316.1 334.3 323.3H334.5C387.1 332.9 446.8 338.3 510.2 338.3C569.2 338.3 625.1 333.6 675 325.2C676.5 315.9 677.4 306.4 677.4 296.6C677.4 277.9 674.4 260 668.9 243.1H607.6V243.2Z" fill="#E3232C"></path> <path d="M462.8 371.1C445.3 371.2 383.3 377.6 359.7 379V394.4H459.3C461.2 383.1 461.7 377 462.8 371.1Z" fill="#E3232C"></path> <path d="M527.2 405.2L527.6 405.8L537 400.7L536.5 400C531.9 393.2 528.2 385.5 525.4 377.1C522.7 368.7 521 360 520.6 351.1V350.3H489.8V359.4H511C512.9 376.6 518.3 392 527.2 405.2Z" fill="#E3232C"></path> <path d="M551.7 394.4H647.7V379C624.1 377.6 563 371 545.6 370.9C546.7 373.7 549 386.3 551.7 394.4Z" fill="#E3232C"></path> <path d="M612.5 431.6V415.4H397.2V431.6C426.7 455.2 464.1 469.3 504.9 469.3C545.6 469.3 583 455.2 612.5 431.6Z" fill="#E3232C"></path> <path d="M489.2 363.7C486.7 377 481.6 389.2 473.9 399.9L473.4 400.6L482.7 405.7L483.1 405.1C491.4 393.4 496.8 380.1 499.3 365.5L499.4 364.7L489.3 362.8L489.2 363.7Z" fill="#E3232C"></path> </svg> 